<?xml version="1.0" encoding="UTF-8" standalone="no"?>
<svg
   xmlns:dc="http://purl.org/dc/elements/1.1/"
   xmlns:cc="http://creativecommons.org/ns#"
   xmlns:rdf="http://www.w3.org/1999/02/22-rdf-syntax-ns#"
   xmlns:svg="http://www.w3.org/2000/svg"
   xmlns="http://www.w3.org/2000/svg"
   xmlns:sodipodi="http://sodipodi.sourceforge.net/DTD/sodipodi-0.dtd"
   xmlns:inkscape="http://www.inkscape.org/namespaces/inkscape"
   width="2500"
   height="2500"
   viewBox="0 0 256 255.95238"
   version="1.1"
   id="svg36"
   sodipodi:docname="docker.svg"
   inkscape:version="0.92.3 (2405546, 2018-03-11)">
  <metadata
     id="metadata42">
    <rdf:RDF>
      <cc:Work
         rdf:about="">
        <dc:format>image/svg+xml</dc:format>
        <dc:type
           rdf:resource="http://purl.org/dc/dcmitype/StillImage" />
        <dc:title></dc:title>
      </cc:Work>
    </rdf:RDF>
  </metadata>
  <defs
     id="defs40" />
  <sodipodi:namedview
     pagecolor="#ffffff"
     bordercolor="#666666"
     borderopacity="1"
     objecttolerance="10"
     gridtolerance="10"
     guidetolerance="10"
     inkscape:pageopacity="0"
     inkscape:pageshadow="2"
     inkscape:window-width="1920"
     inkscape:window-height="1172"
     id="namedview38"
     showgrid="false"
     inkscape:zoom="0.19"
     inkscape:cx="1372.3539"
     inkscape:cy="1951.9139"
     inkscape:window-x="0"
     inkscape:window-y="0"
     inkscape:window-maximized="1"
     inkscape:current-layer="svg36" />
  <path
     style="fill:#2395ec;stroke-width:0.24456172"
     d="m 85.24641,214.36331 c -15.821619,-0.97612 -30.264779,-4.31432 -40.132461,-9.27569 -13.386077,-6.73038 -23.364004,-19.45561 -29.330093,-37.4057 -3.651564,-10.98643 -5.551575,-22.58485 -5.688974,-34.72776 -0.04824,-4.26285 -0.01911,-4.59508 0.511598,-5.7472 0.675864,-1.46849 1.740878,-2.62522 3.227904,-3.50583 l 1.100528,-0.65172 83.517823,-0.13303 83.517845,-0.13302 3.42387,-0.6512 c 1.88312,-0.35815 4.41433,-0.94178 5.62491,-1.29692 2.63991,-0.77445 5.99176,-2.26589 5.99176,-2.66608 0,-0.1581 -0.60935,-1.48688 -1.35411,-2.95263 -2.47815,-4.87726 -3.54906,-9.4643 -3.55114,-15.21073 -0.002,-9.134215 3.1509,-18.268071 9.08707,-26.313842 0.19608,-0.265721 3.86809,1.917708 6.27377,3.730475 2.58569,1.948374 6.44605,6.009268 8.31921,8.751369 2.78932,4.083226 4.6976,8.484357 5.61844,12.957978 0.25581,1.24282 0.57509,2.15458 0.79544,2.27158 0.20228,0.10747 0.97331,0.0989 1.71312,-0.0191 3.31321,-0.52913 8.80312,-0.7542 12.08629,-0.4955 7.39735,0.58288 12.66703,2.26675 16.71747,5.3419 1.99788,1.51681 1.93466,1.15878 0.75221,4.25867 -2.01402,5.27993 -6.5175,10.66918 -11.92257,14.26748 -5.88271,3.91628 -12.40499,5.84172 -20.89632,6.16885 -3.23316,0.12443 -3.89739,0.21375 -4.0136,0.53866 -0.65893,1.84228 -4.67082,11.00119 -6.27674,14.32942 -8.93085,18.50902 -19.87437,32.62272 -33.76944,43.55201 -21.26299,16.72458 -49.61324,25.43752 -82.172748,25.25436 -3.228208,-0.0191 -7.355188,-0.12467 -9.171062,-0.23668 z M 31.073694,116.47705 c -0.331616,-0.5061 -0.371573,-1.87402 -0.31134,-10.65833 0.06616,-9.65092 0.08908,-10.09239 0.543793,-10.42465 0.705837,-0.515877 22.801231,-0.51571 23.50673,1.6e-4 0.456852,0.33405 0.474724,0.73304 0.474724,10.60085 0,8.33136 -0.06286,10.32953 -0.335631,10.65814 -0.303573,0.36579 -1.442417,0.40443 -11.916748,0.40443 H 31.454101 Z m 29.929912,0.17626 c -0.27272,-0.32861 -0.335655,-2.32677 -0.335655,-10.65814 0,-9.8678 0.01674,-10.26679 0.474724,-10.60084 0.705715,-0.516017 22.801038,-0.516017 23.50673,0 0.456864,0.33405 0.474724,0.73304 0.474724,10.60084 0,8.33137 -0.06286,10.32953 -0.335631,10.65814 -0.303549,0.36577 -1.440719,0.40444 -11.892453,0.40444 -10.45172,0 -11.588891,-0.0387 -11.892439,-0.40444 z m 30.325655,0 c -0.27272,-0.32861 -0.335655,-2.32677 -0.335655,-10.65814 0,-9.8678 0.01674,-10.26679 0.474748,-10.60084 0.705692,-0.516017 22.800996,-0.516017 23.506696,0 0.45685,0.33405 0.47471,0.73304 0.47471,10.60084 0,8.33137 -0.0629,10.32953 -0.33562,10.65814 -0.30356,0.36577 -1.44072,0.40444 -11.89246,0.40444 -10.4517,0 -11.58887,-0.0387 -11.892419,-0.40444 z m 29.876329,-0.0686 c -0.16289,-0.30422 -0.25316,-4.08707 -0.25316,-10.60053 0,-9.50075 0.0277,-10.15254 0.44723,-10.53223 0.40267,-0.36441 1.58096,-0.40474 11.82334,-0.40474 10.7104,0 11.39978,0.0263 11.78084,0.44723 0.36297,0.40109 0.40477,1.49741 0.40477,10.62097 0,8.92276 -0.0473,10.22099 -0.38434,10.55805 -0.33855,0.33854 -1.76409,0.3843 -11.97492,0.3843 -11.209,0 -11.59894,-0.0167 -11.84376,-0.47305 z m 30.28584,0.0686 c -0.27272,-0.32861 -0.33563,-2.32677 -0.33563,-10.65814 0,-9.8678 0.0167,-10.26679 0.47473,-10.60084 0.70549,-0.515873 22.80089,-0.516041 23.50672,-1.7e-4 0.45462,0.33226 0.47764,0.77374 0.54379,10.42466 0.0602,8.7843 0.0191,10.15223 -0.31134,10.65833 l -0.3804,0.5806 h -11.58113 c -10.47432,0 -11.61316,-0.0387 -11.91674,-0.40444 z M 61.142675,89.075035 c -0.456877,-0.334075 -0.474724,-0.733327 -0.474724,-10.629694 0,-9.545192 0.03131,-10.31389 0.436729,-10.719279 0.406707,-0.406703 1.216977,-0.436725 11.791365,-0.436725 10.574401,0 11.384684,0.03009 11.791378,0.436725 0.405395,0.405389 0.436706,1.174087 0.436706,10.719279 0,9.896367 -0.01674,10.295619 -0.474724,10.629694 -0.705692,0.516016 -22.801015,0.516016 -23.50673,0 z m 30.325679,1.67e-4 C 91.013621,88.74287 90.990716,88.301083 90.924782,78.59566 c -0.06612,-9.724744 -0.04962,-10.156214 0.40637,-10.719446 l 0.475217,-0.586877 h 11.384981 c 10.60351,0 11.41496,0.03009 11.82172,0.436725 0.40539,0.405389 0.43669,1.174087 0.43669,10.719279 0,9.896367 -0.0167,10.295619 -0.47471,10.629694 -0.70551,0.515897 -22.800884,0.51604 -23.506696,1.67e-4 z m 30.027596,-0.03367 -0.54352,-0.380695 V 78.449854 c 0,-8.432698 0.0605,-10.29366 0.34712,-10.685723 0.33512,-0.458314 0.74599,-0.474721 11.88096,-0.474721 11.13497,0 11.54583,0.01672 11.88095,0.474721 0.28667,0.392063 0.34715,2.253025 0.34715,10.685723 v 10.210978 l -0.54356,0.380695 c -0.47264,0.331066 -1.99688,0.380719 -11.68454,0.380719 -9.68767,0 -11.2119,-0.04968 -11.68456,-0.380719 z m -0.29036,-27.97237 c -0.16289,-0.304244 -0.25316,-4.089553 -0.25316,-10.608485 0,-8.677626 0.0523,-10.17891 0.36415,-10.437659 0.20038,-0.166224 0.31157,-0.387309 0.24731,-0.491271 -0.25591,-0.414085 1.39214,-0.482533 11.61662,-0.482533 10.22448,0 11.87255,0.06855 11.61662,0.482533 -0.0643,0.103892 0.0471,0.325047 0.2473,0.491271 0.31187,0.258821 0.36418,1.770184 0.36418,10.526385 0,8.968632 -0.0473,10.271377 -0.38434,10.60851 -0.33855,0.338541 -1.76409,0.384301 -11.97492,0.384301 -11.209,0 -11.59894,-0.01671 -11.84376,-0.473052 z"
     id="path57"
     inkscape:connector-curvature="0"
     sodipodi:nodetypes="ccscccccccssccccccccsccsccsscccccccscscccsccscsccsccscsccscscscsccscscccsccscscsccccccscsccccscscsccsccsccsccscsc" />
</svg>
