<?xml version="1.0" encoding="utf-8"?>
<!-- Generator: Adobe Illustrator 19.0.0, SVG Export Plug-In . SVG Version: 6.00 Build 0)  -->
<svg version="1.1" id="layer" xmlns="http://www.w3.org/2000/svg" xmlns:xlink="http://www.w3.org/1999/xlink" x="0px" y="0px"
	 viewBox="-153 -46 652 652" style="enable-background:new -153 -46 652 652;" xml:space="preserve">
<style type="text/css">
	.st0{fill:#1E1E1C;}
	.st1{fill:#FEDD0E;}
	.st2{fill:#171716;}
	.st3{fill:#FFFFFF;}
	.st4{fill:#E4352A;}
	.st5{fill:#232017;}
	.st6{fill:#1D201D;}
</style>
<path class="st0" d="M231.2,229.7h-5.1L212.5,263h6.7l3.3-8.3H235l3.4,8.3h6.9L231.2,229.7z M224.3,249.8l2.6-6.5
	c1-2.6,1.5-4,1.8-5.2h0.1c0.3,1.1,0.8,2.6,1.8,5.1l2.5,6.6H224.3z"/>
<path class="st0" d="M298.9,238.6c-7.2,0-11.4,5.4-11.4,12.5c0,6.5,3.7,12.4,12.9,12.4c3.1,0,6.2-0.7,8.9-2.2l-1.9-4.1
	c-1.8,1-3.8,1.6-6.3,1.6c-4.2,0-7-2.4-7.2-6h16.2v-1.4C310.1,243.4,306,238.6,298.9,238.6 M293.9,248.6c0.1-2.9,1.8-5.4,4.9-5.4
	c3.3,0,4.8,2.7,4.8,5.4H293.9z"/>
<path class="st0" d="M409,238.6c-7.2,0-11.4,5.4-11.4,12.5c0,6.5,3.7,12.4,12.9,12.4c3.1,0,6.2-0.7,8.9-2.2l-1.9-4.1
	c-1.8,1-3.9,1.6-6.4,1.6c-4.2,0-7-2.4-7.1-6h16.2v-1.4C420.2,243.4,416.1,238.6,409,238.6 M404,248.6c0.1-2.9,1.8-5.4,4.9-5.4
	c3.4,0,4.8,2.7,4.9,5.4H404z"/>
<path class="st0" d="M459.8,231.9l-6.3,1.8v5.5H449v4.7h4.5v13.2c0,4,2.7,6.4,7.2,6.4c2.5,0,5.5-0.7,7.4-1.9l-1.9-4.1
	c-1,0.6-2.4,1.2-3.8,1.2c-1.7,0-2.5-0.8-2.5-3v-11.8h0.3v0h2.1c2.8,0,3.6-1.4,4-2.1l1.3-2.4l0.1-0.1l-0.1-0.1h-7.4v0h-0.3V231.9z"/>
<path class="st0" d="M276.2,238.6c-5.9,0-9.5,3-9.5,7.2c0,8,11.8,6.4,11.8,10.5c0,1.8-1.9,2.5-4.4,2.5c-2.6,0-5-0.8-6.9-2l-0.3,0.6
	l-1.1,4c2.1,1.1,5.1,2,8.7,2c5.5,0,10.3-2.2,10.3-7.4c0-8.3-11.9-6.8-11.9-10.6c0-1.6,1.4-2.2,3.6-2.2c2.2,0,4.1,0.5,6,1.1l1.2-4.3
	v-0.4C281.6,239,279.1,238.6,276.2,238.6"/>
<path class="st0" d="M322.7,238.6c-5.9,0-9.6,3-9.6,7.2c0,8,11.9,6.4,11.9,10.5c0,1.8-1.9,2.5-4.4,2.5c-2.4,0-4.7-0.7-6.6-1.8
	l-1.3,4.7c2.1,1,4.9,1.8,8.4,1.8c5.4,0,10.3-2.2,10.3-7.4c0-8.3-11.8-6.8-11.8-10.6c0-1.6,1.5-2.2,3.6-2.2c2.2,0,4.1,0.5,5.9,1.1
	l1.2-4.4v-0.2C328,239,325.5,238.6,322.7,238.6"/>
<path class="st0" d="M343.8,238.6c-5.9,0-9.6,3-9.6,7.2c0,8,11.8,6.4,11.8,10.5c0,1.8-1.9,2.5-4.4,2.5c-2.5,0-4.8-0.7-6.7-1.8
	l-1.3,4.7c2.1,1,5,1.9,8.4,1.9c5.5,0,10.3-2.2,10.3-7.4c0-8.3-11.9-6.8-11.9-10.6c0-1.6,1.4-2.2,3.6-2.2c2.1,0,4.1,0.5,5.9,1
	l1.2-4.5v-0.1C349.1,239,346.6,238.6,343.8,238.6"/>
<path class="st0" d="M255.3,238.6c-5.9,0-9.5,3-9.5,7.2c0,8,11.8,6.4,11.8,10.5c0,1.8-1.9,2.5-4.4,2.5c-2.6,0-5-0.8-6.9-2l0,0
	l2.4,6.1c1.5,0.4,3.1,0.6,4.9,0.6c5.4,0,10.3-2.2,10.3-7.4c0-8.3-11.9-6.8-11.9-10.6c0-1.6,1.4-2.2,3.6-2.2c2.2,0,4.1,0.5,5.9,1.1
	l1.2-4.4v-0.2C260.6,239,258.1,238.6,255.3,238.6"/>
<path class="st0" d="M355.7,238.2l-0.1,0.1v13.6V263h6.3v-16.8c1.9-1.4,4-2.4,6-2.4c3.3,0,3.7,2.3,3.7,5.1V263h6.4v-15.9l-0.1-0.9
	c1.8-1.4,3.9-2.4,6-2.4c3.3,0,3.9,2.2,3.9,5V263h6.3v-15.8c0-6.3-3.9-8.6-8.4-8.6c-2.8,0-6,1.3-9.1,3.7c-1.2-2.4-3.6-3.7-6.7-3.7
	c-3.1,0-6,1.4-8.5,3.3h-0.2c-0.7-1.3-1.7-1.8-2.3-2.1l-3.2-1.5L355.7,238.2z"/>
<path class="st0" d="M423.8,238.2l-0.1,0.1v13.6V263h6.3v-16.7c1.9-1.5,4.1-2.5,6.2-2.5c3.3,0,3.9,2.4,3.9,5.3V263h6.4v-15.8
	c0-6.8-4.1-8.7-8.1-8.7c-3.1,0-6,1.3-8.7,3.3h-0.3c-0.6-1.3-1.7-1.8-2.3-2.1l-3.2-1.5L423.8,238.2z"/>
<path class="st0" d="M-14.8,229.3c-11.3,0-18.6,7.7-18.6,17.3c0,9.7,6.3,16.7,17.8,16.7c3.4,0,7.1-0.6,10.9-2.5
	c-0.9-1.4-1.5-3-1.5-4.9c-2.5,1.4-5.2,2.3-8.6,2.3c-7.2,0-11.7-4.8-11.7-11.8c0-6.5,4.1-12,11.9-12c3.4,0,6.3,0.8,9.1,2.2v-5.6
	C-7.8,230-11,229.3-14.8,229.3"/>
<path class="st0" d="M71.9,226.9h-6.4v34.5c2.1,1,5,1.7,8.3,1.7c8.6,0,15.1-4.8,15.1-13.2c0-7.6-5.4-11.7-12.1-11.7
	c-2,0-3.5,0.3-4.9,0.7V226.9z M74.8,258.1c-0.9,0-1.9-0.1-2.9-0.4v-13.8c0.8-0.3,1.9-0.8,3.8-0.8c4.2,0,6.6,2.9,6.6,7.1
	C82.3,254.9,79.4,258.1,74.8,258.1"/>
<path class="st0" d="M146.3,227.1h-6.4v11.5c-1-0.2-2.5-0.3-3.4-0.3c-8,0-13.8,5.2-13.8,12.7c0,7.9,6.1,12.2,14.3,12.2
	c3.1,0,6.8-0.6,9.3-1.8V227.1z M136.9,258.3c-4.6,0-7.7-2.7-7.7-7.3c0-4.9,3.2-7.7,7.7-7.7c1.3,0,2.1,0.1,3,0.4v14.2
	C139,258.2,137.8,258.3,136.9,258.3"/>
<path class="st0" d="M186.1,238.4c-7.2,0-11.4,5.4-11.4,12.5c0,6.4,3.7,12.4,12.9,12.4c3.1,0,6.2-0.7,8.9-2.2l-1.9-4.1
	c-1.8,1-3.8,1.6-6.4,1.6c-4.2,0-7-2.4-7.2-6h16.2v-1.4C197.3,243.2,193.2,238.4,186.1,238.4 M181.1,248.3c0-2.9,1.8-5.4,4.9-5.4
	c3.3,0,4.8,2.7,4.9,5.4H181.1z"/>
<path class="st0" d="M7.5,238.4c-3.5,0-6.8,0.8-9.8,2.4l2.1,3.9c1.8-0.9,4.1-1.7,6.6-1.7c2.9,0,4.9,1.2,4.9,4v0.7L7,247.8
	c-2.6,0.1-4.7,0.5-6.5,1.4c-2.6,1.2-4.3,3.3-4.3,6.5c0,4.6,3.6,7.6,8.4,7.6c3.2,0,5.4-1.2,7.3-2.8h0.5c0.6,0.7,1.3,1.1,1.8,1.3
	l3.3,1.6l0.1,0.1l0.1-0.1v-14h0V247C17.7,241.3,14.3,238.4,7.5,238.4 M6.4,258.6c-2.3,0-3.7-1.2-3.7-3.3c0-1.2,0.5-2.2,1.6-2.7
	c0.8-0.5,2-0.7,3.7-0.8l3.3-0.1v5l0,0.2C10.3,257.6,8.6,258.6,6.4,258.6"/>
<path class="st0" d="M22.5,237.8l-0.1,0.1v3.6v21.1h6.4v-11.2v-5.6c1.9-1.4,4-2.4,6-2.4c3.3,0,3.7,2.3,3.7,5.1v14.1h6.4v-15.9l0-0.9
	c1.8-1.4,3.9-2.4,6-2.4c3.3,0,3.8,2.2,3.8,5v14.1H61v-15.8c0-6.3-4-8.6-8.4-8.6c-2.8,0-6,1.3-9.1,3.7c-1.2-2.4-3.6-3.7-6.7-3.7
	c-3.1,0-6,1.4-8.5,3.3h-0.2c-0.6-1.3-1.7-1.8-2.3-2.1l-3.2-1.5L22.5,237.8z"/>
<path class="st0" d="M105.6,238.5c-2.9,0-5.4,1.5-6.9,3.2L98,239h-5.4v23.8H99V246c2-2.3,3.9-2.9,5.5-2.9c2.3,0,3.9,1.4,3.9,1.4
	v-5.5C107.4,238.6,106.5,238.5,105.6,238.5"/>
<path class="st0" d="M115.4,227.9c-2.2,0-3.9,1.6-3.9,3.6c0,2,1.7,3.6,3.9,3.6c2.3,0,3.9-1.6,3.9-3.6
	C119.3,229.4,117.6,227.9,115.4,227.9 M118.6,239h-6.4v23.8h6.4V239z"/>
<path class="st0" d="M174.5,237.4h-4.8h-5h-0.1v0h-3.9c-6.9,0-10.3,4.4-10.3,8.8c0,3.2,1.6,5.9,4.2,7.4c-2.1,1.4-3,3.1-3,4.5
	c0,1.3,0.6,2.4,1.7,3c-2.6,1.1-4.5,3.1-4.5,5.8c0,4.1,4.3,7,11.7,7c8.8,0,13.3-3.5,13.3-7.9c0-8.9-16.6-4.9-16.6-9.2
	c0-0.5,0.2-1,0.6-1.8c0.9,0.2,1.9,0.4,3.1,0.4c6.1,0,10.4-3.5,10.4-8.8c0-1.9-0.6-3.6-1.8-5.1h0.2h0.5v0c2.1-0.2,2.7-1.2,3-1.8
	l1.1-2.1V237.4L174.5,237.4z M160.9,250.8c-2.8,0-4.4-2.1-4.4-4.4c0-2.9,1.9-4.4,4.4-4.4c2.8,0,4.5,2.1,4.5,4.5
	C165.4,249.3,163.5,250.8,160.9,250.8 M161.3,269.6c-4.2,0-6.9-1.5-6.9-3.8c0-1.6,1.2-2.6,2-3.1c3.4,1.3,11.2,0.6,11.2,4
	C167.7,268.4,165.2,269.6,161.3,269.6"/>
<polygon class="st0" points="-31.8,278.9 -14.1,278.9 -15.6,282.8 -27.1,282.8 -27.1,293.3 -15.7,293.3 -15.7,297.1 -27.1,297.1 
	-27.1,308.2 -13.9,308.2 -13.9,312 -31.8,312 "/>
<path class="st0" d="M-8.5,288.3h3.9l0.6,2.9c2.7-2.1,5.5-3.5,8.7-3.5c4,0,7.7,2.2,7.7,8.4V312H7.7v-14.5c0-3.4-0.8-6-4.3-6
	c-2.6,0-5,1.4-7.2,3.2V312h-4.7V288.3z"/>
<path class="st0" d="M15.5,317c0-2.5,1.6-4.7,4.6-6c-1.1-0.6-1.8-1.7-1.8-3c0-1.2,0.6-2.9,2.8-4.6c-2.5-1.5-4-4.1-4-7.2
	c0-4.7,3.7-8.5,9.6-8.5c2.2,0,3.8,0.5,4.9,0.9c0.3,0.2,0.4,0.2,0.6,0c1.2-1.1,2.9-2,5.5-2c0.6,0,1.3,0.1,1.6,0.2l-1.1,3.3
	c-0.5-0.1-1.1-0.1-1.5-0.1c-0.7,0-1.6,0.1-2.2,0.5c1.7,1.6,2.6,3.8,2.6,6c0,5.2-4,8.6-10,8.6c-1.2,0-2.3-0.2-3.2-0.5
	c-0.8,0.9-1.2,1.7-1.2,2.4c0,4.6,16.6,0.4,16.6,9.3c0,4.4-4.6,7.5-12.5,7.5C19.9,323.9,15.5,321.3,15.5,317 M34.6,316.8
	c0-4.1-7.5-3.3-11.8-4.6c-1.2,0.7-3,2-3,4c0,2.7,3,4.3,7.4,4.3C32.1,320.6,34.6,318.9,34.6,316.8 M32.4,296.4c0-3-2.1-5.2-5.3-5.2
	c-3.1,0-5.3,1.9-5.3,5.1c0,3,2,5.2,5.3,5.2C30.1,301.6,32.4,299.8,32.4,296.4"/>
<path class="st0" d="M42.8,276.5h4.7v29.6c0,1.8,0.6,2.4,1.9,2.4c0.4,0,1.2-0.2,1.6-0.3l1,3.5c-1.2,0.5-2.7,0.7-3.9,0.7
	c-3.5,0-5.2-1.8-5.2-5V276.5z"/>
<path class="st0" d="M54.9,280.6c0-1.6,1.2-2.8,3-2.8c1.8,0,3.1,1.2,3.1,2.8c0,1.6-1.3,2.8-3.1,2.8
	C56.1,283.4,54.9,282.2,54.9,280.6 M55.5,288.3h4.7V312h-4.7V288.3z"/>
<path class="st0" d="M65.7,307.1c1.6,0.9,3.8,1.8,6.5,1.8c2.8,0,5.1-1,5.1-3.4c0-4.8-11.8-3.2-11.8-11.1c0-3.8,3.2-6.7,8.8-6.7
	c2.5,0,4.8,0.5,6.6,1.1v3.8c-1.8-0.7-3.9-1.4-6.4-1.4c-2.3,0-4.4,0.7-4.4,2.9c0,4.8,11.8,3.1,11.8,11.2c0,4.9-4.4,7.1-9.6,7.1
	c-3.5,0-6.4-1.1-8.1-2.1L65.7,307.1z"/>
<path class="st0" d="M86.4,276.5h4.7v14.7c2.5-2,5.3-3.5,8.6-3.5c3.9,0,7.7,2.2,7.7,8.4V312h-4.7v-14.5c0-3.4-0.9-6-4.4-6
	c-2.6,0-5,1.4-7.2,3.2V312h-4.7V276.5z"/>
<path class="st1" d="M-53,276.5c-0.2,4.1-0.8,7.8-1.9,11c-1.1,3.1-2.5,5.9-4.4,8.3c-3.5,4.4-7.8,6.6-10.7,8.1
	c-0.2,0.1-1.9,0.9-10.1,4.8l0.1,0.2h0.2v-32.1h27v-0.4h-27.4v32.8l0.3-0.2c8.2-3.8,9.9-4.7,10.1-4.8c2.9-1.5,7.2-3.7,10.8-8.2
	c1.9-2.4,3.4-5.2,4.5-8.4c1.1-3.3,1.7-7,1.9-11.1L-53,276.5z"/>
<path class="st1" d="M-101.1,276.5v32.3h0.2l0.1-0.2c-8.2-3.8-9.9-4.7-10.1-4.8c-2.9-1.5-7.2-3.7-10.7-8.1c-1.9-2.4-3.4-5.2-4.4-8.3
	c-1.1-3.2-1.7-6.9-1.9-11h-0.2v0.2h27.2v-0.4h-27.4l0,0.2c0.2,4.1,0.8,7.8,1.9,11.1c1.1,3.2,2.6,6,4.5,8.4c3.6,4.5,7.9,6.7,10.8,8.2
	c0.3,0.1,2,0.9,10.1,4.8l0.3,0.2v-32.6H-101.1z"/>
<polygon class="st2" points="-52.8,230.4 -52.8,230.3 -80.2,230.3 -80.2,257 -52.6,257 -52.6,230.3 -52.8,230.3 -52.8,230.4 
	-53,230.4 -53,256.6 -79.8,256.6 -79.8,230.6 -52.8,230.6 -52.8,230.4 -53,230.4 "/>
<polygon class="st2" points="-100.9,230.4 -100.9,230.3 -128.3,230.3 -128.3,257 -100.7,257 -100.7,230.3 -100.9,230.3 
	-100.9,230.4 -101.1,230.4 -101.1,256.6 -127.9,256.6 -127.9,230.6 -100.9,230.6 -100.9,230.4 -101.1,230.4 "/>
<path class="st0" d="M-90.5,317.7l-0.8-0.4c-1.2-0.6-20.4-9.6-21.5-10.2c-6.2-3.2-19.1-9.8-19.1-33v-47.2H-49v47.2
	c0,23.2-12.9,29.8-19.1,33c-1.1,0.6-20.4,9.6-21.5,10.2L-90.5,317.7z"/>
<path class="st3" d="M-82,258.7v-30.1h-16.9v30.1h-31.2v15.4v0.5h31.2v37.2c4.5,2.1,8.4,4,8.4,4l0,0v0c0,0,3.9-1.8,8.4-4v-37.2h31.2
	l0-0.5v-15.4H-82z"/>
<rect x="-130.1" y="228.6" class="st4" width="31.2" height="30.1"/>
<rect x="-82" y="228.6" class="st4" width="31.2" height="30.1"/>
<path class="st4" d="M-98.9,274.6h-31.2c0.2,21.6,11.9,27.8,18.2,31.1c0.6,0.3,7.3,3.5,13.1,6.2V274.6z"/>
<path class="st4" d="M-82,274.6v37.2c5.7-2.7,12.4-5.8,13.1-6.2c6.3-3.2,18-9.5,18.2-31.1H-82z"/>
<path class="st0" d="M-71.3,266.9l0.7-0.7l-0.8-0.9l-0.8,0.9l0.7,0.7c0,0.4,0,3.6-2,4.7c0,0,0.7,0.1,1.6,0c0,0,0.1,0.8,0.6,1.8
	c0.4-1,0.6-1.8,0.6-1.8c0.9,0.2,1.6,0,1.6,0C-71.3,270.4-71.3,267.2-71.3,266.9"/>
<path class="st0" d="M-66.2,261.4l0.7-0.7l-0.8-0.9l-0.8,0.9l0.7,0.7c0,0.4,0,3.6-2,4.7c0,0,0.7,0.1,1.6,0c0,0,0.2,0.8,0.6,1.8
	c0.4-1,0.6-1.8,0.6-1.8c0.9,0.2,1.5,0,1.5,0C-66.2,265-66.2,261.8-66.2,261.4"/>
<path class="st0" d="M-61.1,266.9l0.6-0.7l-0.8-0.9l-0.8,0.9l0.6,0.7c0,0.4,0,3.6-2,4.7c0,0,0.7,0.1,1.6,0c0,0,0.2,0.8,0.6,1.8
	c0.4-1,0.6-1.8,0.6-1.8c0.9,0.2,1.5,0,1.5,0C-61.2,270.4-61.1,267.2-61.1,266.9"/>
<path class="st0" d="M-56,261.4l0.6-0.7l-0.8-0.9l-0.8,0.9l0.6,0.7c0,0.4,0,3.6-2,4.7c0,0,0.7,0.1,1.6,0c0,0,0.2,0.8,0.6,1.8
	c0.4-1,0.6-1.8,0.6-1.8c0.9,0.2,1.6,0,1.6,0C-56.1,265-56,261.8-56,261.4"/>
<path class="st0" d="M-76.4,261.4l0.6-0.7l-0.8-0.9l-0.8,0.9l0.7,0.7c0,0.4,0,3.6-2,4.7c0,0,0.7,0.1,1.6,0c0,0,0.2,0.8,0.6,1.8
	c0.4-1,0.6-1.8,0.6-1.8c0.9,0.2,1.5,0,1.5,0C-76.4,265-76.4,261.8-76.4,261.4"/>
<path class="st0" d="M-119.5,266.9l0.6-0.7l-0.8-0.9l-0.8,0.9l0.6,0.7c0,0.4,0.1,3.6-2,4.7c0,0,0.7,0.1,1.6,0c0,0,0.2,0.8,0.6,1.8
	c0.4-1,0.6-1.8,0.6-1.8c0.9,0.2,1.6,0,1.6,0C-119.5,270.4-119.5,267.2-119.5,266.9"/>
<path class="st0" d="M-114.4,261.4l0.6-0.7l-0.8-0.9l-0.8,0.9l0.7,0.7c0,0.4,0,3.6-2,4.7c0,0,0.7,0.1,1.6,0c0,0,0.2,0.8,0.6,1.8
	c0.4-1,0.6-1.8,0.6-1.8c0.9,0.2,1.5,0,1.5,0C-114.4,265-114.4,261.8-114.4,261.4"/>
<path class="st0" d="M-109.3,266.9l0.6-0.7l-0.8-0.9l-0.8,0.9l0.6,0.7c0,0.4,0,3.6-2,4.7c0,0,0.7,0.1,1.5,0c0,0,0.2,0.8,0.6,1.8
	c0.4-1,0.6-1.8,0.6-1.8c0.9,0.2,1.6,0,1.6,0C-109.3,270.4-109.3,267.2-109.3,266.9"/>
<path class="st0" d="M-104.2,261.4l0.6-0.7l-0.8-0.9l-0.8,0.9l0.7,0.7c0,0.4,0,3.6-2,4.7c0,0,0.7,0.1,1.5,0c0,0,0.2,0.8,0.6,1.8
	c0.4-1,0.6-1.8,0.6-1.8c0.9,0.2,1.6,0,1.6,0C-104.2,265-104.2,261.8-104.2,261.4"/>
<path class="st0" d="M-124.6,261.4l0.6-0.7l-0.8-0.9l-0.8,0.9l0.6,0.7c0,0.4,0,3.6-2,4.7c0,0,0.7,0.1,1.6,0c0,0,0.2,0.8,0.6,1.8
	c0.4-1,0.6-1.8,0.6-1.8c0.9,0.2,1.6,0,1.6,0C-124.6,265-124.6,261.8-124.6,261.4"/>
<path class="st0" d="M-90.2,279.1l0.6-0.7l-0.8-0.9l-0.8,0.9l0.6,0.7c0,0.4,0,3.6-2,4.7c0,0,0.7,0.1,1.6,0c0,0,0.2,0.8,0.6,1.8
	c0.4-0.9,0.6-1.8,0.6-1.8c0.9,0.2,1.5,0,1.5,0C-90.3,282.6-90.3,279.4-90.2,279.1"/>
<path class="st0" d="M-90.2,295.4l0.6-0.7l-0.8-0.9l-0.8,0.9l0.6,0.7c0,0.4,0,3.6-2,4.7c0,0,0.7,0.1,1.6,0c0,0,0.2,0.8,0.6,1.8
	c0.4-0.9,0.6-1.8,0.6-1.8c0.9,0.2,1.5,0,1.5,0C-90.3,298.9-90.3,295.8-90.2,295.4"/>
<path class="st0" d="M-85.5,287.2l0.6-0.7l-0.8-0.9l-0.8,0.9l0.7,0.7c0,0.4,0,3.6-2,4.7c0,0,0.7,0.1,1.6,0c0,0,0.2,0.8,0.6,1.8
	c0.4-1,0.6-1.8,0.6-1.8c0.9,0.1,1.5,0,1.5,0C-85.6,290.8-85.5,287.6-85.5,287.2"/>
<path class="st0" d="M-95,287.2l0.6-0.7l-0.8-0.9l-0.8,0.9l0.7,0.7c0,0.4,0,3.6-2,4.7c0,0,0.7,0.1,1.6,0c0,0,0.2,0.8,0.6,1.8
	c0.4-1,0.6-1.8,0.6-1.8c0.9,0.1,1.5,0,1.5,0C-95.1,290.8-95,287.6-95,287.2"/>
<path class="st0" d="M-85.5,303.5l0.6-0.7l-0.8-0.9l-0.8,0.9l0.7,0.7c0,0.4,0,3.6-2,4.7c0,0,0.7,0.1,1.6,0c0,0,0.2,0.8,0.6,1.8
	c0.4-0.9,0.6-1.8,0.6-1.8c0.9,0.2,1.5,0,1.5,0C-85.6,307.1-85.5,303.9-85.5,303.5"/>
<path class="st0" d="M-95,303.5l0.6-0.7l-0.8-0.9l-0.8,0.9l0.7,0.7c0,0.4,0,3.6-2,4.7c0,0,0.7,0.1,1.6,0c0,0,0.2,0.8,0.6,1.8
	c0.4-0.9,0.6-1.8,0.6-1.8c0.9,0.2,1.5,0,1.5,0C-95.1,307.1-95,303.9-95,303.5"/>
<path class="st0" d="M-90.2,241.9l0.6-0.7l-0.8-0.9l-0.8,0.9l0.6,0.7c0,0.4,0,3.6-2,4.7c0,0,0.7,0.1,1.6,0c0,0,0.2,0.8,0.6,1.8
	c0.4-0.9,0.6-1.8,0.6-1.8c0.9,0.2,1.5,0,1.5,0C-90.3,245.5-90.3,242.3-90.2,241.9"/>
<path class="st0" d="M-85.5,233.8l0.6-0.7l-0.8-0.9l-0.8,0.9l0.7,0.7c0,0.4,0,3.5-2,4.7c0,0,0.7,0.1,1.6,0c0,0,0.2,0.8,0.6,1.8
	c0.4-1,0.6-1.8,0.6-1.8c0.9,0.2,1.5,0,1.5,0C-85.6,237.3-85.5,234.2-85.5,233.8"/>
<path class="st0" d="M-95,233.8l0.6-0.7l-0.8-0.9l-0.8,0.9l0.7,0.7c0,0.4,0,3.5-2,4.7c0,0,0.7,0.1,1.6,0c0,0,0.2,0.8,0.6,1.8
	c0.4-1,0.6-1.8,0.6-1.8c0.9,0.2,1.5,0,1.5,0C-95.1,237.3-95,234.2-95,233.8"/>
<path class="st0" d="M-85.5,250.1l0.6-0.7l-0.8-0.9l-0.8,0.9l0.7,0.7c0,0.4,0,3.5-2,4.7c0,0,0.7,0.1,1.6,0c0,0,0.2,0.8,0.6,1.8
	c0.4-0.9,0.6-1.8,0.6-1.8c0.9,0.2,1.5,0,1.5,0C-85.6,253.6-85.5,250.5-85.5,250.1"/>
<path class="st0" d="M-95,250.1l0.6-0.7l-0.8-0.9l-0.8,0.9l0.7,0.7c0,0.4,0,3.5-2,4.7c0,0,0.7,0.1,1.6,0c0,0,0.2,0.8,0.6,1.8
	c0.4-0.9,0.6-1.8,0.6-1.8c0.9,0.2,1.5,0,1.5,0C-95.1,253.6-95,250.5-95,250.1"/>
<path class="st0" d="M-105.6,243.4l0.1,0.4l0.2,0.8c0.4,1.4,0.6,1.8,1.3,1.8c0.4,0,0.8-0.2,0.9-0.5l0.2-0.5l0.2-0.2
	c0.3,0,0.4,0.3,0.4,0.9c0,0.2,0.1,0.6,0.2,1.2c0.1,0.4,0.1,0.7,0.1,1.1l-0.2,0.8c0.1,0.5,0.2,1.2,0.2,1.5c0,0.6-0.1,1.2-0.3,1.5
	c0.1,0.4,0.1,0.6,0.1,0.9l-0.1,0.8c-0.1,0.6-0.1,0.7-0.1,0.9l0.1,0.3l0.1,0.3l-0.1,0.1l-0.5-0.2l-0.6-0.3l-0.6-0.4
	c-0.5,0.4-0.7,0.5-2,0.8l-0.6,0.2l-0.4,0.2c-0.2,0-0.3-0.4-0.3-1.1c0-0.5,0-1,0.1-1.4c-0.4-0.1-0.7-0.2-1-0.2l-0.4,0l-0.1,0
	l-0.1-0.2l0.2-0.5l0.2-0.6l0.7-0.7l0.7-0.4l1-0.2c0.6-0.1,0.9-0.4,0.9-0.8c0-0.3-0.2-0.6-0.8-0.8l-1.1-0.4l-1-0.5
	c-0.6-0.3-0.7-0.4-0.9-0.4l-0.3,0.4c0,0.4,0.3,0.8,0.7,0.8l0.3,0l0.3-0.1l0.2,0.2v0.1l-0.1,0.4c0,0.4-0.3,0.8-0.9,1.5l-0.2,0.3
	c-0.2,0.8-0.7,1.5-1.4,2l-0.3,0.2l-0.2,0.3l-0.5,0.6l-0.7,0.6l-0.5,0.5l-0.3,0.4l-0.2,0.1c-0.2,0-0.4-0.2-0.6-0.6l-0.4-0.4l-0.5,0.1
	l-0.4,0h-0.9c-0.5,0-1.2,0.1-1.5,0.3l-0.3,0.1l-0.2-0.2l-0.1-0.2c0-0.5,0.3-1.3,0.8-2c0.3-0.4,0.4-0.5,0.7-0.8
	c-0.1-0.4-0.4-0.8-0.7-0.9l-0.5-0.1l-0.1-0.1c0-0.1,0.2-0.3,0.6-0.5c0.5-0.2,1-0.4,1.5-0.4c0.5,0,0.9,0.2,1.3,0.5
	c0.7,0.5,0.9,0.6,1.3,0.6c0.6,0,1.1-0.5,1.1-1c0-0.4-0.2-0.7-0.7-1.3c-0.7-0.9-1-1.4-1-2c0-0.4,0.1-0.9,0.3-1.2l0.3-0.4l0.1-0.2
	l-0.5-0.3c-0.4,0-1.2,0.3-1.9,0.7l-0.5,0.5l0.1,0.2l0.3,0.2l0,0.1l-0.1,0.2l-0.5,0.7c-0.3,0.3-0.7,0.8-1.1,1.1l-0.3,0.3l-0.2,0.4
	c-0.2,0.3-0.7,0.8-1.2,1.1l-0.4,0.3l-0.2,0.3l-0.4,0.5l-0.6,0.8l-0.7,0.7c-0.2,0.2-0.4,0.6-0.7,1.6c-0.2,0.5-0.4,0.9-0.5,0.9
	l-0.2-0.2c-0.5-0.6-1-0.9-1.2-0.9l-0.3,0.1l-0.7,0.3l-1,0.2c-0.7,0.1-1,0.3-1.5,0.8l-0.2,0.2l-0.1-0.3l0-0.2l0.1-0.7
	c0.1-0.7,0.3-1.2,0.5-1.6l0.4-0.8l0.1-0.4c0-0.6-0.6-1.1-1.4-1.2l-0.3-0.2l0.5-0.6c0.5-0.4,1.2-0.6,1.7-0.6c0.3,0,0.7,0.1,1.2,0.3
	l0.6,0.2l0.6,0.1c0.6,0,1.2-0.5,1.9-1.7c0.3-0.6,0.5-0.9,0.5-1.3c0-0.6-0.3-1-0.8-1c-0.4,0-0.8,0.2-1.2,0.5l-0.4,0.8v0.3l0,0.1
	l-0.2,0.4c-0.2,0-0.6-0.3-1.6-1.5c-0.8-0.9-1-1.3-1-2.1c-0.9-1.1-1.1-1.5-1.1-2.3l0-0.5c-0.6-0.7-0.8-1.1-0.8-1.7l0.2-0.7
	c-0.3-0.4-0.4-0.6-0.5-1l-0.1-0.5l-0.4-0.9l-0.3-0.5c0-0.3,0.2-0.4,1.1-0.6l-0.1-0.5l0.1-0.6l0.2-0.9c0.1-0.4,0.1-0.6,0.1-0.8
	c0-0.2,0-0.3-0.2-0.8l-0.2-0.6l-0.2-0.3l0.2-0.2c0.3,0,1,0.4,1.7,1c1.5,1.2,1.8,1.7,2,3.1l0.1,0.5c0.7,0.5,1.1,1.1,1.1,1.8
	c0,0.5-0.2,1.1-0.5,1.6l-0.5,0.8l-0.2,0.8c0,0.5,0.1,0.9,0.5,1.5c0.4,0.7,0.7,0.9,1.2,0.9c0.7,0,1.3-1.1,1.3-2.4v-0.2v-0.5l0.1-0.8
	c0.1-0.4,0.1-0.6,0.1-0.7l0-0.6v-0.4l-0.3-0.5l-0.6-0.6c-0.9-0.9-1.3-1.7-1.3-2.3c0-0.8,0.6-1.3,1.4-1.3l0.6,0.1v-0.2
	c0-1.1,0.2-1.9,0.6-1.9l0.1,0l0.5,0.4l0.6,0.4l0.2,0.1l0.4-0.7l0.4-0.5l0.2-0.4l0.2-0.2l0.2-0.2l0.2,0.4c0.1,0.2,0.1,0.2,0.5,0.6
	l0.3,0.3l0.2,0.5l0.1,0.2l0.5-0.5l0.4-0.2l0.3-0.1l0.1,0.1l0.2,0.4c0.3,0.5,0.4,0.7,0.4,0.9v0.2v0.3c0.9,0.3,1.2,0.7,1.2,1.6
	c0,0.6-0.4,1.4-1,2.1c-0.5,0.5-0.5,0.6-0.5,1c0,1.8,1.4,2.9,3.8,2.9l1.8,0c1.1,0,1.8,0.1,2.9,0.4c1.3,0.4,1.6,0.5,2,0.5l0.3-0.1
	l0.1-0.2c0-0.4-0.6-0.6-2.8-1.2c-4.4-1.2-6.2-2.8-6.2-5.6c0-2.1,1.9-3.7,4.3-3.7c0.8,0,2,0.2,2.6,0.4l1.1,0.4l0.6,0.1
	c0.4,0,0.6-0.3,0.6-0.9l0.3-0.4c0.3,0,0.8,0.4,1.2,0.9c0.4,0.6,0.7,1.2,0.7,1.6c0,0.6-0.3,1-0.9,1.3c-0.6,0.9-1.3,1.2-2.3,1.2
	c-0.8,0-1.9-0.4-3.7-1.4c-0.6-0.3-1-0.5-1.3-0.5c-0.5,0-0.8,0.3-0.8,0.7c0,0.4,0.3,0.6,1.1,0.9c1.1,0.4,1.4,0.5,1.9,1
	c1.4,0.2,2,0.4,2.8,1.1c2.3,0.7,3.8,2.2,3.8,3.9c0,1.7-1.2,2.9-2.9,2.9C-104.8,243.6-105,243.6-105.6,243.4"/>
<path class="st1" d="M-103,254.4l-0.1-0.6l0-0.2l0.1-0.4l0-0.3l-0.2-0.8l-0.3-0.4l-0.3-0.5l-0.1-0.2l0.2-0.2l0.3,0.1l0.3,0.1
	c0.2,0,0.2-0.2,0.2-0.7c0-0.5-0.1-0.8-0.2-0.9l-0.4-0.4l-0.3-0.3l-0.1-0.2l0.2-0.2l0.6,0.1l0.1,0l0.2-0.2l0-0.1l-0.1-0.5l-0.2-0.6
	l-0.2-0.2l-0.1,0l-0.7,0.1l-0.1,0c-0.9,0-1.8-0.7-2.1-1.6l-0.5-1.6c-0.2-0.5-0.6-1-1.3-1.5l-0.5-0.3l-0.5,0l-0.1-0.1l0.3-0.1
	l0.9,0.1c0.3,0,0.8,0.1,1.4,0.4c0.8,0.2,1.3,0.4,1.8,0.4c1.3,0,2.1-0.7,2.1-1.8c0-0.8-0.4-1.6-1.1-2.2l-0.9-0.5l-0.1,0.1l0,0.3v0
	l-0.2,0.2l-0.5-0.5c-0.5-1-1.3-1.6-2.1-1.6l-0.2,0.1l0.1,0.4l0.2,0.5l0.1,0.2l-0.1,0.1l-0.4-0.2l-0.4-0.4l-0.3-0.5
	c-0.3-0.4-0.5-0.6-1.1-0.9l-0.6-0.3l-0.3-0.1l-0.1,0.1l0.1,0.3l0.3,0.5l-0.1,0.1c-0.2,0-0.6-0.4-1-0.9c-0.3-0.4-0.5-0.9-0.5-1.4
	c0-1.1,0.8-1.9,2-1.9c0.6,0,1.3,0.2,2,0.6l1.2,0.7c0.4,0.2,1.1,0.4,1.4,0.4l0.8-0.1l0.3-0.1l0.1-0.2l-0.1-0.1l-0.2,0l-0.6-0.1
	l-0.7-0.2c-0.7-0.3-1.1-0.5-1.3-0.6c-0.4-0.3-0.7-0.4-0.9-0.5l-0.4-0.2l0.1-0.1l0.3,0.1l1,0.4l1.1,0.4c0.6,0.2,1.4,0.4,1.8,0.4
	c0.5,0,0.9-0.4,0.9-0.8l-0.5-1.1l-0.2-0.1l-0.2,0.2l0,0.2l0,0.3l-0.5,0.6l-0.4-0.1l-1.7-0.5c-1.4-0.4-2.1-0.6-2.8-0.6
	c-2.1,0-3.6,1.3-3.6,3.1c0,2,1.5,3.3,5.1,4.5c3.6,1.2,4.1,1.5,4.1,2.3c0,0.5-0.6,0.9-1.1,0.9l-0.6,0c-0.1,0-0.7-0.2-1.8-0.4
	c-1.1-0.2-2.1-0.4-3.3-0.4c-2.6,0-4,0.4-5.3,1.6l-0.8,0.3h-0.2l-0.4,0h0l-0.7,0.4c-0.3,0.4-0.4,0.7-0.5,0.7l-0.3,0.1
	c-0.3,0-0.4-0.2-0.7-0.8l-0.6-0.7l-0.5-0.4l-0.1-0.2l0.1-0.2l0.4-0.6l0.3-0.4c0.2,0,0.2,0.2,0.2,0.7l0.2,0.7l0.3,0.6l0.2,0.1
	c0.3,0,0.6-0.6,0.7-1.3c0.1-0.5,0.1-0.7,0.3-0.7l0.1,0.1l0.2,0.4l0.3,0.4l0.3,0.2l0,0c0.2,0,0.3-0.1,0.3-0.6l0-0.2l-0.1-0.4l0-0.2
	l0.1-0.3l0.2,0.1l0.3,0.3l0.5,0.2l0.3-0.2l-0.2-0.6l-0.2-0.3c-0.2-0.4-0.4-0.5-0.6-0.5l-0.3,0l-0.3,0.1l-0.2,0.1l-0.1-0.1
	c0-0.2,0.2-0.6,0.4-1c0.2-0.3,0.4-1,0.4-2c0.1-1.3,0.3-2.2,0.5-2.2l0.2,0.4l0,0.3l0,0.2l0.1,0.4c0.2,0,0.5-0.3,0.7-0.8l0.1-0.5
	l0-0.1l-0.5-0.9l-0.5-0.2l-0.2-0.1v-0.3v-0.3l-0.1-0.3l-0.1-0.3l-0.1-0.3c-0.6,0.3-0.9,0.5-1.1,0.7l-0.4,0.4l-0.1-0.1l0.1-0.4l0-0.1
	c0-0.5-0.4-1.1-0.9-1.4l-0.2,0.2l-0.2,0.2l-0.3,0.4l-0.3,0.5l0,0.3v0v0.1l-0.1,0.3l-0.1,0l-0.2-0.3l-0.3-0.3l-0.5-0.3l-0.2-0.2
	l-0.1,0.2l-0.1,0.4l0,0.4l0,0.4l0,0.1l-0.2,0.3l-0.3-0.1l-0.4-0.1c-0.4,0-0.7,0.3-0.7,0.7c0,0.5,0.1,1,0.4,1.3l0.3,0.4l0.3,0.1
	l0.1-0.5l-0.1-0.4l0-0.2l0.1-0.3c0.1,0,0.2,0.1,0.3,0.6l0.2,0.9l0.2,1.2l0.3,1c0.2,0.5,0.3,0.8,0.4,0.9l0.3,0.5l-0.1,0.1l-0.2-0.1
	l-0.3-0.1l-0.2,0c-0.4,0-0.5,0.3-0.5,2c0,1,0.2,2.4,0.5,3.1l0.6,1.3l0.1,0.6c0,1.8-2.6,4.7-5.4,6c-1,0.5-1.4,1-1.5,2l0,0.3
	c0.4-0.2,0.6-0.3,0.9-0.3c0.8-0.2,0.9-0.3,1.1-0.7l0.1-0.3c0-0.1,0.1-0.2,0.7-0.5l0.4-0.3l0.3-0.3l0.1,0.1l0,0.1l-0.3,0.7l0,0.2
	c0,0.5,0.3,1,0.9,1.2c0.1-0.6,0.2-0.8,0.4-1.1l0.5-0.7c0.2-0.3,0.2-0.6,0.2-1.1l-0.1-0.8l0-0.2l0.2-0.2l0.2,0.1l0.1,0.5l0.3,0.2
	c0.3,0,0.6-0.3,0.9-0.9l0.2-0.7l0-0.3l-0.1-0.4l0-0.1l0.2-0.3l0.1,0l0.2,0.6l0.3,0.3l0.7-0.6c0.2-0.3,0.2-0.6,0.2-1
	c0-0.5,0.1-0.7,0.3-0.7l0.1,0.1l0.1,0.3l0.2,0.2l0.6-0.6l0.1-0.2l-0.2-0.4l-0.3-0.6c0-0.3,0.1-0.5,0.3-0.9l0.3-0.6
	c0.3-0.6,0.5-0.8,0.6-0.8l0.2,0.2l-0.1,0.2l-0.1,0.3l0.2,0.2l0.5-0.1c0.1,0,0.3-0.1,0.7-0.3l0.9-0.3l0.5-0.1l0.5,0l0.6,0.1l0.4-0.4
	l-0.4-0.8l-0.1-0.2l0-0.1l0.1-0.1c0.2,0,0.6,0.4,1,1c2.3,3.4,3.1,4.2,4.6,4.6c1.6,0.5,2,0.8,2,1.7c0,0.5-0.3,1-0.8,1.8
	c-1.2,1.5-1.4,2.1-1.4,3.2v0.2l0.3-0.1l0.4-0.2l0.7-0.1l0.4-0.5l0-0.1l-0.1-0.5l0-0.1l0.2-0.5l0.2-0.1l0.2,0.2l0.4,0.8
	C-103.8,254-103.6,254.1-103,254.4"/>
<path class="st1" d="M-124.4,236.2l-0.3,0.5l0,0.5c-0.1,0.4-0.1,0.5-0.1,0.6l0.3,0.6l0.6-0.7l0.1-0.6l-0.1-0.6L-124.4,236.2z"/>
<path class="st1" d="M-126.6,232.6l0.4,0.4c0.6,0.6,0.9,1.5,0.9,2.9c0,0.3,0,0.5-0.1,1.3c0,0.4-0.1,0.8-0.1,1.1
	c0,3.1,1.1,5.4,2.5,5.4c0.4,0,0.7-0.2,1.2-0.8l0.2-0.2l0.1,0.2l0,0.5l0.1,0.5l0,0.5l0.1,0.5l0,0.1l-0.2,0.2l-0.5,0.1l-0.7,0.3
	c-0.4,0.2-0.6,0.4-0.7,0.5l-0.3,0.6l-0.2,0.1c-0.2,0-0.4-0.3-0.7-0.7c-0.2-0.4-0.4-0.7-0.4-0.8l0.2-0.1h0.1l0.3,0l0.2,0l0.2,0
	l0.2-0.2l-0.1-0.1l-1.2-0.5c-0.4-0.1-0.7-0.4-0.9-0.8c-0.3-0.6-0.5-1-0.5-1.1l0.2-0.3l0.2,0.1l0.3,0.1l0.2-0.2l-0.2-0.3
	c-1-0.7-1.6-1.5-1.6-2.1l0.2-0.3l0.2,0l0.3,0h0l0.2-0.2l-0.2-0.2l-0.4-0.2l-0.4-0.4c0-0.1-0.2-0.3-0.4-0.8l-0.4-0.7l-0.2-0.4
	l-0.2-0.2l0.8-0.2c0.4,0,0.6,0.2,0.9,0.8c0.2,0.4,0.3,0.6,0.4,0.6l0.1-0.3l-0.1-0.7l-0.1-0.6l0-0.4l-0.3-0.1l-0.2-0.2l-0.2-0.6
	l0.1-0.5c0.3-0.9,0.3-1.3,0.3-1.6l0-0.2L-126.6,232.6z"/>
<path class="st1" d="M-123.4,250.6l-0.8-0.2l-0.5-0.2c-0.4-0.2-0.7-0.3-1-0.3c-0.4,0-0.7,0.1-1.1,0.4l0.2,0.2l0.5,0.3l0.5,0.4
	l0.4,0.2C-124.5,251.5-124.1,251.2-123.4,250.6"/>
<path class="st1" d="M-113.2,255.2l0.5-0.7c0.7-0.6,1.1-1,1.1-1.4v-0.3v-0.3l0.2-0.4l0.2,0.1l0.1,0.3l0.2,0.1l0.4-0.3l0.3-0.4
	l0.2-0.5l-0.1-0.3l-0.2-0.4l-0.1-0.4l0.2-0.2l0.2,0.1l0.2,0.2l0.2,0.1l0.3-0.2l0.2-0.4l0.1-0.2l-0.2-0.2l-0.3-0.1
	c-0.5-0.2-0.8-0.9-0.8-1.6l0.1-0.3l0.2-0.4l0.1-0.4l-0.3-0.8l-0.3-0.5c-0.2-0.4-0.2-0.5-0.4-0.5l-0.1,0l-0.2,0.1l-0.3,0.1l-0.3,0.4
	l-0.4,0.2l-0.4,0.9c0,0.6,0.1,0.8,1,2.3c0.4,0.6,0.5,1.1,0.5,1.4c0,1-1,1.8-2.9,2.2l-1.2,0.3c-0.9,0.2-1.4,0.8-1.6,1.8
	c0.4-0.2,0.5-0.2,1.2-0.2l0.4,0h0.1l0.6-0.3l0.9-0.7l0.4-0.2l0.3-0.2l0.1,0l0.1,0.1l-0.3,0.4c-0.3,0.3-0.4,0.6-0.4,0.9L-113.2,255.2
	z"/>
<path class="st1" d="M-116.5,251.3l0.8,0.7l0.5,0.3l0.4,0l0.2,0c0.4-0.1,0.6-0.1,0.6-0.2l-0.1-0.2l-0.3-0.2l-0.3-0.3l-0.9-0.3
	C-115.9,251-116.1,251-116.5,251.3"/>
<path class="st1" d="M-108,252.7l0.2,0l0.2,0l0.2,0h0.1c0.6,0,1.2-0.5,1.2-1l-0.5-0.3C-107.2,251.4-107.7,251.8-108,252.7"/>
<path class="st5" d="M-117.8,235.4l0.3,0.4c0.1,0,0.2-0.3,0.5-0.7c0.4-0.6,0.7-1.2,0.7-1.5l-0.1-0.2l0,0l-0.3,0.2
	c-0.2,0.2-0.4,0.3-0.9,0.5l-0.4,0.4l0,0.2l0.1,0.4L-117.8,235.4z"/>
<path class="st5" d="M-119.4,234.1l0.4,0.2l0.2,0.2l0,0.1l0,0.5c0,0.4-0.4,0.4-0.5,0.4l-0.2-0.3l-0.6-0.6c-0.2-0.2-0.3-0.6-0.4-1.1
	l0-0.1l0.2-0.2l0.3,0.1L-119.4,234.1z"/>
<path class="st5" d="M-118.4,236.7h-0.1l-0.3,0l-0.3-0.2l-0.4-0.1l-0.4,0.3c0,0.2,0.1,0.6,0.4,1.1l0.3,0.8c0.3,0.7,0.6,1,1,1
	c0.4,0,0.4-0.3,0.6-0.9c0.5-1.2,0.8-1.4,0.8-1.9l-0.4-0.4l-0.2-0.1l-0.4,0.3L-118.4,236.7z"/>
<polygon class="st1" points="-118,237.3 -118.4,237.4 -118.8,237.4 -118.9,237.5 -119,237.6 -118.8,238.2 -118.7,238.7 
	-118.3,239.1 -117.9,238.6 -117.8,238.1 -117.8,237.5 -117.8,237.4 -118,237.3 "/>
<path class="st0" d="M-56.2,243.4l0.1,0.4l0.2,0.8c0.4,1.4,0.6,1.8,1.3,1.8c0.4,0,0.8-0.2,0.9-0.5l0.2-0.5l0.2-0.2
	c0.3,0,0.4,0.3,0.5,0.9c0,0.2,0.1,0.6,0.1,1.2c0.1,0.4,0.1,0.8,0.1,1.1l-0.2,0.7l0.1,0.3c0.1,0.5,0.1,0.7,0.1,0.9
	c0,1.1-0.1,1.4-0.3,1.8c0.1,0.4,0.1,0.6,0.1,0.9c0,0.2,0,0.5-0.1,0.9l-0.1,0.7l0,0.5l0.1,0.3l-0.1,0.1l-0.5-0.2l-0.6-0.3l-0.6-0.4
	c-0.5,0.4-0.6,0.5-1.2,0.6c-0.9,0.2-1.2,0.3-1.4,0.4l-0.4,0.2c-0.2,0-0.4-0.4-0.4-0.9c0-0.8,0.1-1.2,0.2-1.5c-0.5-0.2-0.8-0.2-1-0.2
	l-0.4,0l-0.1,0l-0.1-0.2c0-0.2,0.2-0.7,0.4-1.1c0.3-0.6,0.9-1,1.3-1.1l1-0.2c0.6-0.1,0.9-0.4,0.9-0.8c0-0.3-0.2-0.6-0.8-0.8
	l-1.1-0.4l-1.1-0.5l-0.6-0.3l-0.3-0.1l-0.4,0.4c0,0.4,0.4,0.8,0.8,0.8l0.3,0l0.2-0.1l0.2,0.3c0,0.4-0.3,1.2-0.6,1.6l-0.3,0.4
	l-0.2,0.3c-0.1,0.6-0.8,1.6-1.4,2l-0.3,0.2l-0.2,0.3l-0.5,0.6l-0.7,0.6l-0.5,0.5l-0.3,0.4l-0.2,0.1c-0.2,0-0.4-0.2-0.6-0.6l-0.4-0.4
	l-0.5,0.1l-0.4,0h-0.9c-0.5,0-1.2,0.1-1.5,0.3l-0.3,0.1l-0.2-0.4c0-0.8,0.6-2,1.5-2.8c-0.1-0.5-0.4-0.8-0.7-0.9l-0.5-0.1l-0.1-0.1
	c0-0.1,0.2-0.3,0.6-0.5c0.8-0.3,1-0.4,1.4-0.4c0.5,0,0.9,0.2,1.4,0.5c0.7,0.5,0.9,0.6,1.3,0.6c0.6,0,1.1-0.5,1.1-1
	c0-0.4-0.2-0.7-0.7-1.3c-0.7-0.9-1-1.4-1-2.1c0-0.5,0.1-0.8,0.6-1.5l0.1-0.3l-0.5-0.3c-0.3,0-0.6,0.1-1.1,0.3
	c-0.8,0.4-1.3,0.7-1.3,0.9l0.1,0.2l0.3,0.2l0.1,0.1l-0.1,0.2c0,0-0.2,0.3-0.5,0.7c-0.4,0.5-0.7,0.8-1.1,1.1l-0.3,0.3l-0.2,0.4
	c-0.2,0.3-0.7,0.8-1.1,1.1l-0.4,0.3l-0.2,0.3c-0.3,0.5-0.7,1-1,1.3l-0.7,0.7c-0.2,0.2-0.5,0.8-0.7,1.6c-0.2,0.6-0.4,0.9-0.5,0.9
	l-0.2-0.2c-0.5-0.5-1-0.9-1.2-0.9l-0.3,0.1l-0.7,0.3l-1,0.2c-0.8,0.1-1.1,0.3-1.5,0.8l-0.2,0.2l-0.2-0.3l0-0.2c0,0,0.1-0.2,0.1-0.7
	c0.1-0.7,0.3-1.3,0.5-1.6l0.5-0.8l0.1-0.4c0-0.6-0.6-1-1.4-1.2l-0.3-0.2l0.5-0.6c0.5-0.4,1.2-0.6,1.6-0.6c0.3,0,0.7,0.1,1.2,0.3
	l0.6,0.2l0.6,0.1c0.6,0,1.2-0.5,1.9-1.7c0.4-0.6,0.5-0.9,0.5-1.3c0-0.6-0.3-1-0.8-1c-0.4,0-0.8,0.2-1.1,0.5l-0.4,0.8l0,0.3l0,0.1
	l-0.2,0.3c-0.2,0-0.5-0.2-0.9-0.7l-0.7-0.8c-0.8-0.9-1-1.2-1-2.1c-0.9-1.1-1.1-1.7-1.1-2.3l0-0.5c-0.6-0.7-0.8-1-0.8-1.7l0.1-0.7
	c-0.3-0.4-0.4-0.6-0.5-1l-0.1-0.5l-0.4-0.9l-0.3-0.5c0-0.2,0.3-0.4,0.9-0.6l0.2-0.1l0-0.5l0.1-0.6l0.2-0.9l0.1-0.8
	c0-0.2,0-0.4-0.2-0.8l-0.3-0.6l-0.2-0.3l0.2-0.2l0.3,0.1c0.9,0.5,1.9,1.2,2.6,1.9c0.6,0.6,0.8,1.2,0.9,2.6c0.8,0.6,1.1,1.1,1.1,1.9
	c0,0.5-0.2,0.9-0.5,1.5c-0.3,0.5-0.5,0.7-0.5,0.8l-0.2,0.8c0,0.5,0.2,0.9,0.5,1.5c0.4,0.7,0.8,0.9,1.2,0.9c0.7,0,1.3-1.1,1.3-2.4
	l0-0.2v-0.7l0.1-0.6l0-0.7l0.1-0.6l0-0.3c0-0.3-0.1-0.3-0.9-1.1c-0.9-0.9-1.3-1.7-1.3-2.4c0-0.7,0.6-1.2,1.4-1.2l0.5,0.1v-0.3l0-0.5
	l0.2-0.6c0.1-0.5,0.2-0.6,0.4-0.6l0.1,0l0.5,0.4l0.6,0.4l0.2,0.1l0.3-0.7l0.4-0.5l0.3-0.4l0.2-0.2l0.2-0.2l0.2,0.4l0.2,0.3l0.4,0.3
	c0.3,0.2,0.5,0.6,0.6,1l0.5-0.5l0.4-0.2l0.3-0.1l0.1,0.1l0.2,0.4c0.3,0.5,0.4,0.6,0.4,0.9v0.2v0.3c0.9,0.2,1.2,0.7,1.2,1.6
	c0,0.7-0.3,1.4-1,2.1c-0.5,0.5-0.5,0.7-0.5,1.1c0,1.8,1.4,2.8,3.8,2.8l1.7,0c1.2,0,1.8,0.1,2.9,0.4c1.2,0.4,1.6,0.5,2,0.5l0.5-0.3
	c0-0.4-0.6-0.6-2.8-1.2c-4.4-1.2-6.2-2.8-6.2-5.6c0-2.1,1.9-3.7,4.3-3.7c0.8,0,2,0.2,2.6,0.4l1.1,0.4l0.6,0.1c0.4,0,0.5-0.2,0.6-0.9
	l0.3-0.4c0.3,0,0.8,0.4,1.2,0.9c0.4,0.5,0.7,1.2,0.7,1.7c0,0.5-0.3,0.9-0.9,1.3c-0.6,0.9-1.3,1.2-2.3,1.2c-0.8,0-2-0.5-3.6-1.4
	c-0.6-0.3-0.9-0.5-1.2-0.5c-0.5,0-0.8,0.3-0.8,0.7c0,0.4,0.3,0.6,1.1,0.9c1.2,0.4,1.5,0.5,1.9,1c1.3,0.2,1.9,0.4,2.8,1.1
	c2.4,0.7,3.8,2.1,3.8,3.9c0,1.7-1.2,2.8-2.8,2.8C-55.4,243.6-55.6,243.6-56.2,243.4"/>
<path class="st1" d="M-53.6,254.4l-0.1-0.5l0-0.3c0.1-0.5,0.1-0.7,0.1-1l-0.2-0.5l-0.3-0.4l-0.3-0.7l0.1-0.2l0.1,0l0.2,0.1l0.3,0.1
	c0.2,0,0.2-0.2,0.2-0.7c0-0.7-0.1-1-0.5-1.3l-0.4-0.3l-0.1-0.2l0.2-0.2l0.3,0.1l0.3,0.1l0.1,0l0.1-0.2l0-0.1l-0.1-0.5
	c-0.1-0.6-0.2-0.8-0.3-0.8l-0.1,0l-0.7,0.1l-0.1,0c-0.8,0-1.8-0.7-2.1-1.6l-0.5-1.6c-0.1-0.5-0.6-1-1.3-1.5l-0.5-0.3l-0.5,0
	l-0.1-0.1l0.3-0.1c0.7,0,1.4,0.1,2.3,0.4c0.9,0.3,1.3,0.4,1.8,0.4c1.3,0,2.1-0.6,2.1-1.7c0-0.5-0.2-1.2-0.5-1.7
	c-0.3-0.4-0.7-0.8-1.2-1.1l-0.2-0.1l-0.1,0.1l0,0.3v0l-0.2,0.2l-0.5-0.5c-0.5-1-1.3-1.6-2.1-1.6l-0.3,0.2l0.1,0.3l0.2,0.5l0.1,0.2
	l-0.1,0.1l-0.5-0.2l-0.4-0.4l-0.3-0.5c-0.3-0.4-0.6-0.6-1.1-0.9l-0.7-0.3l-0.3-0.1l-0.1,0.1l0.1,0.3l0.2,0.5l-0.1,0.1
	c-0.2,0-0.5-0.3-1-0.9c-0.3-0.4-0.5-0.9-0.5-1.4c0-1.1,0.9-1.9,2-1.9c0.6,0,1.3,0.2,2,0.6l1.3,0.7c0.5,0.2,1.1,0.4,1.5,0.4
	c0.2,0,0.3,0,0.7-0.1l0.4-0.1l0.1-0.2l-0.2-0.1c-0.6,0-1.8-0.5-2.6-1c-0.5-0.3-0.8-0.4-0.9-0.5l-0.4-0.3l0.1-0.1l0.2,0l1.1,0.4
	l1.1,0.4c0.5,0.2,1.4,0.4,1.8,0.4c0.5,0,0.8-0.3,0.8-0.8l-0.2-0.7l-0.5-0.5l-0.2,0.3l0,0.1l0,0.3l-0.5,0.5l-0.4-0.1l-1.7-0.5
	c-1.5-0.5-2.1-0.6-2.8-0.6c-2.1,0-3.6,1.3-3.6,3.1c0,2,1.4,3.2,5.2,4.5c3.6,1.2,4.1,1.5,4.1,2.4c0,0.5-0.5,0.9-1.2,0.9l-0.6,0
	c-0.2,0-0.7-0.2-1.8-0.4c-1.1-0.2-2-0.4-3.3-0.4c-2.6,0-3.9,0.4-5.3,1.6l-0.8,0.3h-0.2l-0.4,0l-0.7,0.4l-0.4,0.7l-0.3,0.1
	c-0.3,0-0.4-0.2-0.7-0.8l-0.5-0.7l-0.6-0.4l-0.1-0.2l0.1-0.2l0.2-0.4l0.1-0.3l0-0.2l0.2-0.1c0.2,0,0.2,0.1,0.2,0.7l0.2,0.7l0.3,0.6
	l0.2,0.1c0.3,0,0.6-0.6,0.7-1.3c0.1-0.5,0.1-0.7,0.3-0.7c0.1,0,0.1,0.1,0.4,0.5l0.3,0.4l0.3,0.2h0c0.2,0,0.3-0.1,0.4-0.6l0-0.2
	l-0.1-0.4l0-0.2l0.1-0.3l0.2,0.1l0.3,0.3l0.5,0.2l0.4-0.2l-0.3-0.6l-0.2-0.3c-0.2-0.4-0.3-0.5-0.5-0.5l-0.3,0l-0.4,0.1l-0.2,0.1
	l-0.1-0.1c0-0.2,0.1-0.6,0.4-1c0.2-0.3,0.3-0.9,0.4-2l0.1-1.2c0.1-0.7,0.1-1,0.3-1l0.1,0.1l0.1,0.4v0.3l0.1,0.7l0.4-0.3l0.2-0.5
	l0.1-0.7c0-0.6-0.3-0.8-1.1-1l-0.2-0.1l0-0.2v-0.4l-0.1-0.3l-0.1-0.3l-0.1-0.3l-0.2,0.1c-0.5,0.3-0.7,0.4-0.8,0.6l-0.4,0.4l-0.1-0.1
	l0.1-0.4l0-0.1c0-0.6-0.3-1.1-0.9-1.5l-0.2,0.2l-0.2,0.2l-0.3,0.4l-0.3,0.7v0.1v0.1l-0.1,0.3l-0.1,0l-0.2-0.3l-0.3-0.3l-0.5-0.3
	l-0.2-0.2c-0.3,0.5-0.3,0.6-0.3,1.3v0.2l-0.2,0.4l-0.3-0.1l-0.4-0.1c-0.4,0-0.7,0.3-0.7,0.7c0,0.5,0.1,0.8,0.4,1.3l0.6,0.6l0.1-0.5
	l-0.1-0.4v-0.2l0.2-0.3c0.1,0,0.2,0.1,0.3,0.6l0.2,0.9l0.2,1.2l0.3,1c0.2,0.5,0.4,0.8,0.4,0.9l0.3,0.5l-0.1,0.1l-0.2-0.1l-0.3-0.1
	l-0.2,0c-0.5,0-0.5,0.3-0.5,2c0,1,0.2,2.4,0.5,3.1l0.6,1.3l0.1,0.6c0,1.8-2.6,4.8-5.4,6c-1.1,0.5-1.4,1-1.5,2.4
	c0.5-0.2,0.7-0.3,0.9-0.3c0.8-0.2,0.9-0.3,1.1-0.7l0.1-0.3c0-0.1,0.2-0.2,0.7-0.5l0.4-0.3l0.3-0.3l0.1,0.1l0,0l-0.3,0.7l0,0.2
	c0,0.5,0.3,1,0.9,1.2l0.1-0.3c0.1-0.4,0.2-0.6,0.3-0.8l0.5-0.7c0.2-0.3,0.2-0.4,0.2-1.1l0-0.8l0-0.2l0.2-0.2l0.2,0.1l0.1,0.5
	l0.3,0.2c0.2,0,0.6-0.3,0.9-0.9l0.2-0.6l-0.1-0.8l0-0.1l0.2-0.2l0.1,0l0.2,0.6l0.3,0.3c0.4,0,0.8-0.8,0.9-1.6c0-0.5,0.1-0.7,0.3-0.7
	l0.1,0.1l0.1,0.3l0.2,0.2l0.4-0.3l0.2-0.3l0.1-0.3l-0.2-0.3l-0.3-0.5c0-0.4,0.2-0.8,0.6-1.5c0.4-0.7,0.5-0.8,0.6-0.8l0.2,0.2l0,0.2
	l-0.1,0.3l0.2,0.2l0.5-0.1l0.7-0.3c0.5-0.2,0.8-0.3,0.9-0.3l0.5-0.1l0.5,0l0.6,0.1l0.4-0.4l-0.2-0.4l-0.2-0.4l-0.2-0.2l0-0.1
	l0.2-0.1c0.2,0,0.6,0.4,1,1c2.1,3.2,3.1,4.2,4.6,4.6c1.6,0.5,2,0.8,2,1.7c0,0.5-0.3,1-0.8,1.8c-1.1,1.4-1.5,2.2-1.5,3.1v0.2l0.3-0.1
	l0.4-0.2l0.7-0.1l0.4-0.5l0,0l0-0.5v-0.1l0.4-0.6l0.2,0.1l0.4,0.8C-54.4,254-54.2,254.1-53.6,254.4"/>
<path class="st1" d="M-75.3,237.2l0,0.4v0.2c0,0.4,0.1,0.6,0.2,0.6l0.6-0.7l0.1-0.7l-0.1-0.5l-0.4-0.4
	C-75.2,236.2-75.3,236.5-75.3,237.2"/>
<path class="st1" d="M-77.2,232.6l0.4,0.4c0.5,0.5,0.9,1.6,0.9,2.6l0,0.4l-0.1,1.2l0,1c0,3.3,1,5.5,2.5,5.5c0.4,0,0.8-0.3,1.2-0.8
	l0.2-0.2l0.2,0.2l0,0.5l0,0.5l0.1,0.5l0.1,0.5c0,0.3-0.1,0.3-0.7,0.4l-0.7,0.3c-0.4,0.3-0.6,0.4-0.7,0.5l-0.3,0.6l-0.2,0.1
	c-0.2,0-0.4-0.2-0.7-0.7c-0.3-0.4-0.4-0.7-0.4-0.8l0.2-0.1h0l0.3,0l0.2,0l0.2,0l0.1-0.2l-0.1-0.1l-1.2-0.5c-0.3-0.1-0.6-0.4-0.9-0.8
	c-0.3-0.5-0.5-0.9-0.5-1.1l0.2-0.3l0.2,0.1l0.3,0.1l0.1,0l0.1-0.1l-0.2-0.3c-1-0.7-1.6-1.5-1.6-2.1l0.1-0.3l0.2,0l0.4,0l0.2-0.2
	L-77,239c-0.7-0.3-0.8-0.5-1.3-1.4c-0.3-0.7-0.5-1-0.8-1.3l0.8-0.2c0.4,0,0.6,0.2,0.8,0.8c0.2,0.4,0.3,0.6,0.5,0.6l0.1-0.3l-0.1-0.8
	L-77,236l0-0.4l-0.3-0.1l-0.5-0.8l0-0.5l0.2-0.6c0.1-0.4,0.2-0.8,0.2-1.1v-0.2L-77.2,232.6z"/>
<path class="st1" d="M-74,250.6c-0.6-0.1-0.6-0.1-1.3-0.4c-0.4-0.2-0.7-0.3-1-0.3c-0.4,0-0.7,0.1-1.1,0.4l0.2,0.2l0.5,0.3l0.5,0.4
	l0.4,0.2C-75.1,251.5-74.7,251.2-74,250.6"/>
<path class="st1" d="M-63.8,255.2l0.5-0.7c0.7-0.6,1.1-1,1.1-1.4v-0.3v-0.3l0.2-0.4l0.2,0.1l0.1,0.3l0.2,0.1c0.2,0,0.3-0.1,0.6-0.7
	l0.2-0.5l-0.1-0.3l-0.2-0.4l-0.1-0.4l0.2-0.2l0.2,0.1l0.2,0.2l0.1,0.1l0.4-0.2l0.2-0.4l0.1-0.2l-0.2-0.2l-0.4-0.1
	c-0.4-0.2-0.8-0.9-0.8-1.6l0.1-0.3l0.2-0.4l0.1-0.4l-0.3-0.8l-0.3-0.5c-0.2-0.4-0.2-0.5-0.4-0.5l-0.3,0.1l-0.2,0.1l-0.4,0.4
	l-0.4,0.2c-0.2,0.1-0.4,0.6-0.4,0.9c0,0.5,0.1,0.8,1,2.3c0.4,0.6,0.5,1.1,0.5,1.4c0,1-1.1,1.9-2.9,2.2c-2.1,0.4-2.6,0.7-2.8,2
	c0.4-0.2,0.5-0.2,1.2-0.2l0.4,0h0.1l0.6-0.3l0.9-0.7l0.4-0.2l0.3-0.2l0.1,0l0.1,0.1l-0.2,0.4l-0.4,0.8L-63.8,255.2z"/>
<path class="st1" d="M-67.1,251.3l0.8,0.7l0.6,0.3l0.4,0l0.2,0c0.5-0.1,0.6-0.1,0.6-0.3l-0.1-0.2l-0.3-0.2l-0.3-0.3l-0.8-0.3
	C-66.5,251-66.7,251.1-67.1,251.3"/>
<path class="st1" d="M-58.5,252.7l0.1,0l0.3,0l0.2,0h0.1l0.5-0.1l0.5-0.6l0.1-0.3l-0.5-0.3C-57.8,251.4-58.3,251.8-58.5,252.7"/>
<path class="st5" d="M-68.4,235.4l0.3,0.4c0.1,0,0.3-0.4,0.6-0.8c0.4-0.6,0.7-1.1,0.7-1.4l-0.1-0.2l0,0l-0.3,0.2l-0.9,0.4l-0.4,0.4
	l0,0.2l0.2,0.4L-68.4,235.4z"/>
<path class="st5" d="M-70.8,233.5l-0.3-0.1l-0.2,0.2l0,0.1l0.1,0.4c0.1,0.4,0.3,0.6,0.3,0.7l0.4,0.6l0.6,0.3l0,0l0.1-0.1l0.1-0.5
	l0.1-0.5l0-0.1l-0.2-0.3l-0.4-0.2L-70.8,233.5z"/>
<path class="st5" d="M-69,236.7h-0.1l-0.3,0l-0.3-0.2l-0.4-0.1l-0.4,0.4c0,0.2,0.1,0.5,0.3,1l0.3,0.8c0.3,0.7,0.6,1,1,1
	c0.3,0,0.6-0.3,0.8-0.8l0.3-1.1l0.5-0.7l-0.6-0.6l-0.1,0l-0.4,0.3L-69,236.7z"/>
<polygon class="st1" points="-68.6,237.3 -69,237.4 -69.3,237.4 -69.5,237.5 -69.6,237.6 -69.4,238.2 -69.3,238.7 -69,239.1 
	-68.5,238.6 -68.4,238.1 -68.4,237.5 -68.4,237.4 -68.6,237.3 "/>
<path class="st0" d="M-105.2,290.6c0.2,0.5,0.3,0.8,0.3,1.2l0.1,1.1c0,1.1,0.4,1.6,1.1,1.6l0.6-0.2l0.3-0.3l0.1,0l0.3,0.3l0,0.4
	c0,0.2,0,0.6,0.1,1.1l0.1,1c0,0.5,0,0.7-0.2,1.2c0.2,0.5,0.3,1,0.3,1.5c0,0.6-0.1,0.9-0.3,1.2c0.1,0.4,0.1,0.6,0.1,0.8
	c0,0.2,0,0.6-0.1,0.9c-0.1,0.5-0.1,0.9-0.1,1.2v0.1l-0.2,0.2l-0.3-0.2l-0.4-0.3c-0.2,0-0.2,0.1-0.5,0.8c-0.1,0.2-0.3,0.5-0.6,0.9
	l-0.5,0.7l-0.2,0.5l-0.1,0.1h0c-0.4,0-0.9-0.9-1.4-2.5c-0.2-0.5-0.3-0.7-0.6-0.7l-0.4,0.3l-0.2,0.4l-0.1,0.1c-0.2,0-0.5-0.4-0.7-0.8
	c-0.2-0.4-0.3-0.8-0.3-1.2c0-0.8,0.6-1.4,2.5-2.3c0.8-0.4,1.1-1,1.1-1.9c0-0.8-0.2-1.2-1-1.7c-0.6-0.4-0.9-0.6-1.2-0.6l-0.5,0.4
	l0.5,0.5c0.4,0.1,0.6,0.3,0.6,0.4c0,0.2-0.2,0.5-0.5,0.9c-0.3,0.4-0.4,0.6-0.8,0.8c-0.1,0.7-0.5,1.1-1.3,1.6
	c-0.2,0.4-0.2,0.6-0.5,0.9l-0.6,0.7l-0.4,0.8c-0.1,0.4-0.1,0.4-0.3,0.4c-0.2,0-0.6-0.3-1.1-0.9l-0.4-0.8c-0.3,0.2-0.4,0.2-0.9,0.3
	l-0.7,0.2c-0.4,0.2-0.5,0.3-0.6,0.3l-0.1-0.2l0-0.5c0-0.8,0.3-1.6,0.8-2.2c-0.4-0.4-0.9-0.6-1.3-0.7l-0.2-0.1l0.2-0.5l0.5-0.5
	c0.4-0.3,1-0.5,1.5-0.5c0.4,0,0.9,0.1,1.5,0.4l0.6,0.1l0.5-0.5c0-0.5-0.2-1.2-0.8-2.3c-0.4-0.8-0.5-1.3-0.5-1.6c0-0.9,0.4-1.8,1-2
	l-0.6-0.2l-0.8,0.3l-0.6,0.5l0.2,0.2l0.2,0.4c0,0.6-0.5,1.4-1.3,2c-0.2,0.9-0.6,1.4-1.4,1.8c-0.1,0.5-0.2,0.6-0.6,1.2
	c-0.7,0.9-0.9,1.2-1,1.7l-0.2,0.4l-0.6-0.4l-0.4-0.5c-0.1-0.2-0.2-0.3-0.3-0.8l-0.4,0.1l-0.4,0l-0.3,0c-0.6,0-1.2,0.1-1.5,0.3
	l-0.2,0.1c-0.2,0-0.3-0.3-0.3-0.8c0-0.9,0.3-1.7,0.9-2.5l-0.5-0.5l-0.2-0.2l-0.3-0.1l-0.1-0.2c0-0.1,0.4-0.5,0.9-0.8
	c0.5-0.3,0.9-0.4,1.3-0.4c0.4,0,0.7,0.1,1.2,0.6l0.8,0.4l0.4-0.2l0.2-0.4c0-0.5-0.6-1.3-1.3-1.7c-0.5-0.3-1.1-0.5-1.6-0.5
	c-0.7,0-1.4,0.3-1.7,0.9l-0.3,0.6l-0.2,0.2c-0.2,0-0.3-0.1-0.9-0.7l-0.7-0.7l-0.4-0.7l-0.1-0.3l-0.3-0.2c-0.5-0.3-0.9-1.1-1.1-2.1
	l-0.1-0.3c-0.7-0.7-1-1.7-1-2.5l0-0.3c-0.4-0.4-0.4-0.5-0.7-1.4c-0.2-0.7-0.4-1-0.6-1.3l-0.1-0.2l0.6-0.3l0.5-0.1l0.5,0l0-0.7
	c0-0.4,0-0.7,0.1-1.1l0.1-0.5l-0.1-0.4l-0.1-0.4l-0.1-0.2l0.2-0.1l0.3,0.1c0.5,0.2,0.8,0.4,1.1,0.7c0.9,0.7,1.6,1.7,1.6,2.4l0,0.2
	l0,0.4l0.2,0.4l0.3,0.4l0.4,1c0,0.2,0,0.3-0.5,0.9c-0.3,0.4-0.5,0.7-0.5,1.1c0,0.5,0.2,1,0.5,1.6c0.3,0.5,0.7,0.8,1,0.8
	c0.6,0,0.8-0.5,0.9-1.8c0-0.7,0.1-1.3,0.2-1.9l0-0.4l-0.2-0.5l-0.8-0.9c-0.8-0.8-1-1.3-1-1.9c0-0.7,0.5-1.2,1.2-1.2l0.3,0v-0.2
	l0.1-0.7c0.2-0.5,0.4-0.9,0.5-0.9l0.3,0.1l0.5,0.2l0.5,0.3c0.1-0.4,0.2-0.6,0.4-0.9c0.3-0.4,0.7-0.8,0.9-0.8l0.4,0.3l0.5,0.5
	l0.3,0.5l0.1,0.2l0.3-0.2l0.4-0.2l0.5-0.2l0.3-0.1c0.1,0,0.2,0.1,0.3,1c0.1,0.6,0.1,0.7,0.2,1.1c0.8,0.1,1.2,0.6,1.2,1.4
	c0,0.8-0.4,1.6-1.3,2.5l-0.3,0.6c0,2.2,0.8,2.9,3.7,3.2c1.8,0.2,2.3,0.3,4.5,0.9c1.1,0.3,1.8,0.5,2.2,0.5c0.5,0,0.8-0.2,0.8-0.5
	c0-0.5-0.4-0.6-2.5-1c-4.9-1-6.8-2.6-6.8-5.6c0-2.2,1.7-3.8,4-3.8c1,0,1.9,0.3,3.4,1.1c1.3,0.7,1.6,0.9,1.9,0.9
	c0.4,0,0.5-0.2,0.5-0.8l0.3-0.5l0.8,0.5c0.4,0.5,0.6,0.7,0.6,1.4c0,0.9-0.5,1.5-1.5,1.8l-0.2,0.2c-0.5,0.6-1,0.8-1.9,0.8
	c-0.8,0-1.7-0.3-2.4-0.7l-1.2-0.8c-0.6-0.4-1-0.5-1.3-0.5c-0.6,0-0.9,0.3-0.9,0.8c0,0.5,0.4,0.9,0.9,1.1l1.2,0.4
	c0.4,0.1,0.6,0.2,1.1,0.5l0.6-0.1c0.8,0,1.6,0.2,2.2,0.5l0.5,0.2l0.7,0.2c1.5,0.4,2.7,2,2.7,3.5c0,1.8-1.2,2.9-3.2,2.9L-105.2,290.6
	z"/>
<path class="st1" d="M-105.6,305.5l0.2-0.3l0.4-0.4c0.3-0.3,0.5-0.8,0.5-1.3l-0.1-0.8l-0.1-0.4l0.3-0.3l0.2,0.1l0.4,0.4l0.6,0.4
	l0-0.3l0-0.4c0-0.6-0.2-1.3-0.6-1.7l-0.3-0.5l0.1-0.2l0.1,0.1l0.5,0.2l0.2-0.6c0-0.5-0.2-1-0.5-1.4l-0.3-0.4l0-0.1l0.2-0.2l0.3,0.1
	l0.2,0.1c0.2,0,0.3-0.3,0.3-1l0-0.3l0-0.4c0-0.5-0.1-0.6-0.3-0.6h-0.2c-1.3,0-1.9-0.8-2.2-2.9c-0.2-1.5-0.8-2.6-1.6-2.8
	c-0.4-0.1-0.6-0.2-0.6-0.3l0.2-0.1l0.5,0.1c1,0.4,1.9,0.6,2.7,0.6c1.3,0,2.3-0.9,2.3-2c0-0.8-0.4-1.7-1.2-2.4l-0.7-0.4l0,0l-0.1,0
	l0.1,0.4l0.1,0.3l0,0.1l-0.1,0.1l-0.2-0.1l-0.5-0.7c-0.4-0.5-1.2-1-1.8-1l-0.4,0.2l0.2,0.3l0.2,0.4l0,0.1l-0.1,0.1l0,0
	c-0.1,0-0.2-0.1-0.8-0.7c-0.5-0.5-1.4-1-1.9-1l-0.2,0.1l-0.1,0.1l0.2,0.3l0.3,0.4l-0.2,0.1c-0.2,0-0.5-0.2-1.1-0.7
	c-1-0.7-1.4-1.4-1.4-2.2c0-1,0.7-1.7,1.7-1.7c0.6,0,1.3,0.2,1.8,0.6l1.3,0.9c0.6,0.4,1.3,0.7,2.1,0.7l0.4-0.1l0.2-0.2l-0.2-0.1
	c-0.5-0.1-0.8-0.3-1.1-0.4l-1.3-1c-0.5-0.4-0.8-0.6-1.1-0.7c-0.7-0.3-0.8-0.4-0.8-0.5l0.2-0.1l0.2,0l0.7,0.3
	c0.2,0.1,0.6,0.3,1.1,0.6c1.4,0.9,2.1,1.2,3,1.2c0.8,0,1.4-0.5,1.4-1.3l-0.1-0.4l-0.1-0.2l-0.2-0.1l-0.1,0.1l-0.1,0.5l-0.1,0.2
	l-0.2,0.3l-0.5,0.2c-0.4,0-0.9-0.2-2.1-0.9c-1.2-0.8-2.4-1.2-3.3-1.2c-1.9,0-3.4,1.4-3.4,3.2c0,2.5,1.6,3.6,6.7,4.7
	c1.9,0.4,2.8,0.9,2.8,1.7c0,0.7-0.6,1.2-1.6,1.2l-0.7,0c-0.2,0-1.1-0.3-2.7-0.7c-1.1-0.3-2.4-0.5-3.5-0.5c-2,0-3.3,0.6-4.3,1.8
	l-0.3,0.2l-0.2-0.1l-0.4-0.3l-1-0.3l-0.6,0.2l-0.3,0.2c-0.2,0-0.4-0.3-0.6-0.7c-0.3-0.6-0.4-1.2-0.4-1.7l0.2-0.4l0.2,0.2l0.2,0.7
	c0.1,0.4,0.4,0.7,0.5,0.7l0.4-0.3l0.2-0.4c0.2-0.5,0.2-0.5,0.3-0.5c0.2,0,0.2,0.1,0.3,0.6l0.2,0.4l0.3,0.4l0.3,0.1
	c0.2,0,0.5-0.4,0.5-0.8v-0.1l0-0.5l0.1-0.2l0.2,0.1l0.4,0.3l0.4,0.1l0.3-0.1l0.1-0.2l-0.4-0.4c-0.1-0.2-0.3-0.5-0.5-1l-0.3-0.3
	l-0.2,0.1l-0.3,0.1l-0.3,0.1l-0.1,0l-0.2-0.2l0.5-0.6l0.3-0.7c0-0.4,0.1-0.8,0.2-0.8l0.1-0.9c0-0.4,0.2-1.3,0.4-1.7l0.1-0.2l0.2,0.4
	l0,0.1l0,0.3l0.1,0.5l0.4-0.4l0.2-0.6l0.1-0.5c0-0.5-0.3-0.8-0.7-0.8l-0.2,0l-0.2,0.1l-0.3-0.3l0-0.4l0-0.5l-0.1-0.5l0-0.2l-0.2,0.1
	l-0.3,0.2l-0.4,0.3l-0.4,0.3l-0.2,0.1c-0.2,0-0.2,0-0.2-0.4v-0.1c0-0.3-0.1-0.6-0.7-1.2l-0.1-0.1l-0.1,0.2l-0.3,0.4l-0.3,0.7
	l-0.1,0.4l-0.1,0.2l-0.3-0.2c-0.4-0.4-0.5-0.5-1.1-0.7l0,0.2l-0.2,0.5l0,0.5v0.2v0.2l-0.1,0.2h0l-0.2-0.1l-0.3-0.1
	c-0.5,0-0.8,0.3-0.8,0.7c0,0.3,0.1,0.5,0.6,1.2l0.6,0.6l0.1-0.4l0-0.3l-0.1-0.4l0.1-0.2c0.2,0,0.5,0.7,0.6,1.5l0.1,0.9l0.3,1
	c0.2,0.5,0.5,0.8,0.7,0.9l0.4,0.4l-0.1,0.2l-0.5-0.2l-0.2,0c-0.5,0-0.7,0.3-0.7,1.1c0,1,0.7,2.5,1.6,3.2l1.2,0.9
	c0.6,0.5,1.1,1.2,1.1,1.8c0,0.7-0.8,1.5-2.3,2l-0.9,0.3c-0.7,0.2-0.9,0.7-1.2,1.9l0.7-0.1h0.1l0.4,0l0.6-0.5V296l0.2-0.2l0.4-0.2
	l0.3-0.2l0.1-0.1l0.1,0.1l-0.1,0.2l-0.1,0.9c0,0.6,0.1,0.9,0.4,1.4l0.1-0.3l0.5-0.7c0.4-0.5,0.7-1.2,0.7-1.5l0-0.1l-0.1-0.6l0.1-0.3
	l0.2-0.1l0.3,0.2l0.2,0.2l0.4-0.5l0.1-0.5l-0.1-0.3l-0.1-0.3l0.1-0.2l0.1-0.1l0.1,0.1l0.3,0.1l0.2,0.1l0.4-0.3l0.4-0.7l-0.2-0.2
	c-0.5-0.4-0.9-0.9-0.9-1.3l0.1-0.4l0.3-0.7l0.2-0.5l0.1,0l0.2,0.2l-0.1,0.3l-0.1,0.5l0.3,0.3l0.4-0.1c0.8-0.3,1.4-0.5,1.8-0.5l1,0.3
	l0.2,0.1l0.1-0.1l0.1-0.1l-0.2-0.3l-0.2-0.4l0.1-0.1c0.4,0,1.1,1.2,1.7,3.2c0.5,1.6,0.6,1.7,2.2,2.6c1.3,0.7,1.8,1.4,1.8,2.6
	c0,1.1-0.3,2.6-1,4.4c-0.2,0.6-0.3,1-0.3,1.3c0,0.3,0.1,0.5,0.3,1.2l0.2,0.6L-105.6,305.5z"/>
<path class="st1" d="M-111.7,302c0.2-0.3,0.2-0.4,0.5-0.8c0.4-0.6,0.6-0.9,0.6-1.2v-0.4c0-0.4,0.1-0.5,0.2-0.5l0.1,0.1l0.1,0.2
	l0.2,0.1l0.3-0.2l0.3-0.9l0-0.3l0-0.3l0.2-0.2l0.2,0.2l0.2,0.2l0.2-0.1l0.2-0.3l0.2-0.2l0-0.1l-0.2-0.2c-0.5-0.3-0.7-0.8-0.7-1.8
	c0-0.7-0.1-1.2-0.1-1.4c0-0.1-0.2-0.4-0.5-1.1l-0.3-0.9l-0.3-0.3c-0.7,0-1.3,0.6-1.3,1.3c0,0.4,0.2,1.2,0.6,2
	c0.5,1.2,0.6,1.7,0.6,2.1c0,0.9-0.4,1.3-1.7,1.8c-1.5,0.5-2.2,1.2-2.5,2.6l0.3-0.1l0.4-0.1l0.4-0.1l0.7-0.5l0.1-0.4l0.1-0.2l0.2-0.1
	l0.2-0.1l0,0.1l-0.1,0.3l-0.1,0.6C-112.2,301.2-112.1,301.6-111.7,302"/>
<path class="st1" d="M-126,278.8l0.1,0.3l-0.1,0.6l-0.1,0.5c0,0.4,0.1,0.9,0.2,1.3l0.2,0.6l0,0.1l-0.1,0.2l-0.3-0.2l-1-0.4l-0.5,0
	l0.1,0.3l0.4,0.9l0.6,0.8l0.6,0.4l0.1,0.2l0.1,0.1l-0.1,0.1l-0.5,0l-0.1,0.1c0,0.1,0.1,0.3,0.2,0.8l0.3,0.7l0.4,0.4l0.5,0.3l0.2,0.3
	l-0.1,0.1l-0.3,0l-0.1,0.2c0,0.2,0.2,0.5,0.5,1c0.4,0.5,0.7,0.7,1.2,0.7h0.4l0.3,0.2l-0.2,0.2l-0.5,0.3l0.1,0.3l0.2,0.3l0.5,0.4
	l0.4-0.2l0.8-0.6c0.9-0.2,1.1-0.3,1.1-0.5l-0.1-0.3c-0.3-0.5-0.4-0.8-0.4-1.2l-0.2-0.5l-0.2,0.2l-0.9,0.5c-0.9,0-2-1.4-2.6-3.2
	c-0.1-0.4-0.2-0.9-0.2-1.3c0-0.5,0.1-1,0.2-1.5c0.2-0.7,0.3-1.1,0.3-1.2l0-0.3C-124.4,280.2-125,279.5-126,278.8"/>
<path class="st1" d="M-124.1,282.3c-0.2,0.4-0.4,1.1-0.4,1.6l0.2,0.5l0.1-0.1l0.3-0.5l0.2-0.3l0.2-0.4L-124.1,282.3z"/>
<path class="st1" d="M-121.1,293.6l0.1,0.1l0.2,0.2c0.5,0.5,0.6,0.6,0.8,0.6l1-0.2l0.2-0.2l-0.3-0.3l-0.3-0.2l-0.7-0.4
	C-120.3,293.1-120.6,293.3-121.1,293.6"/>
<path class="st1" d="M-115,298.1l0.5,0.2l0.4,0.2l0.4,0l0.3,0l0.6-0.2l0.5-0.2l0.2-0.2l-0.3-0.1l-0.4-0.1c-0.7-0.3-0.8-0.3-1-0.3
	C-114.2,297.5-114.7,297.7-115,298.1"/>
<path class="st1" d="M-108.3,303.1c0.2-0.4,0.3-0.5,0.9-0.5c0.7,0,1.3-1.2,1.3-2l-0.1-0.1l-0.2,0.1l-0.4,0.2l-0.8,0.3
	c-0.5,0.2-1,0.9-1,1.4L-108.3,303.1z"/>
<path class="st5" d="M-119.7,281.4l0.3,0.4l0.6,0.4l0.2-0.2l0.1-0.4l0-0.4c0-0.3-0.1-0.4-0.9-0.6l-0.4-0.1l-0.3-0.2l-0.1,0.1l0,0.1
	l0.1,0.4L-119.7,281.4z"/>
<polygon class="st5" points="-116.3,280.2 -116.7,280.5 -117.2,280.7 -117.8,281 -117.7,281.5 -117.4,282.1 -117.4,282.1 
	-117.2,282 -116.9,281.4 -116.3,280.8 -116.1,280.4 -116.1,280.3 -116.3,280.2 "/>
<path class="st5" d="M-117.6,283.1l0.4-0.2l0.2-0.1l0.4,0.4c0,0.3-0.3,0.7-0.6,1.2c-0.3,0.6-0.6,1-0.9,1c-0.4,0-0.9-0.6-1.4-1.5
	l-0.2-0.7l0.4-0.5l0.3,0.1l0.2,0.2l0.7,0.2L-117.6,283.1z"/>
<path class="st1" d="M-118.2,283.7l-0.3,0l0,0l-0.2,0.3l0.5,1.1l0.2,0.1c0.2,0,0.3-0.3,0.4-0.8l0.1-0.4l0-0.1l-0.2-0.2l-0.1,0"/>
<path class="st0" d="M-59.1,290.2c0.5,0.6,1.1,0.9,1.6,0.9l0.7-0.1l0.4,0l0.2,0.1l-0.1,0.5l-0.2,0.4l-0.1,0.5l-0.3,0.4l-0.4,0.3
	l-0.1,0.1v0.2v0.1c0,0.6-0.2,1-0.7,1.3l-0.2,0.1l-0.1,0.2c-0.1,0.5-0.2,0.8-0.3,0.9l-0.5,0.7c-0.3,0.4-0.5,0.7-0.7,1l-0.4,0.3
	l-0.6-0.7l-0.1,0.1l-0.3,0.2l-0.5,0.3l-0.4,0.3l-0.3,0.3l-0.2,0.1c-0.1,0-0.3-0.2-0.4-0.6l-0.3-0.8l-0.1-0.8c0-0.4,0-0.6,0.2-0.9
	c-0.5,0.1-0.7,0.1-1,0.2l-0.2,0.1l-0.1-0.1l0.1-0.4l0.3-0.9c0.3-0.7,1.1-1.3,1.8-1.3l0.7,0.1l0.4,0.1l0.5-0.5l-0.2-0.3
	c0,0-0.4-0.1-0.9-0.3c-0.4-0.1-0.7-0.3-1.2-0.8c-0.4-0.4-0.5-0.5-0.6-0.5l-0.1,0.2l0,0.3l0,0.2c0,0.7-0.2,1.3-0.7,2.3l-0.7,1.3
	c-0.4,0.6-0.5,1.1-0.5,1.5c0,0.5,0.2,0.9,0.5,1l0.4,0.1l0.1,0.1l0.1,0.1l-0.1,0.2l-0.5,0.6c-0.5,0.6-0.7,0.8-1.3,0.9
	c-0.3,0.7-0.8,1.2-1.8,1.4l-0.1,0.2c-0.3,0.5-1,1-1.5,1h-0.1c-0.1,0.5-0.4,0.9-0.9,1.3l-0.6,0.4l-0.1,0.2l-0.4,0.4
	c-0.3,0-0.5-0.2-0.7-0.7l-0.2,0.1l-0.5,0.3c-0.1,0-0.4,0.1-0.9,0.2c-0.7,0.1-1.2,0.4-1.3,0.6l-0.2,0.4l-0.1,0.1l-0.3-0.4
	c-0.2-0.5-0.2-1.1-0.2-1.4c0-0.9,0.3-1.5,1.3-2.4v-0.2c0-1.4,1.1-2.3,2.7-2.3h0.3l0.9,0.1h0.1c0.5,0,0.9-0.2,1.4-0.6
	c0.6-0.5,0.8-0.8,0.8-1.4c0-0.2-0.1-0.4-0.3-1c-0.1-0.4-0.2-0.8-0.2-1.2c0-1,0.8-2.3,1.9-3l0.5-0.6l-0.1-0.1l-0.3,0.2l-0.6,0.4
	l-0.4,0.2l-0.5,0.2l-0.2,0.2l0.1,0.2l0,0.2l-0.1,0.3l-0.4,0.5c-0.4,0.6-0.6,0.8-1.1,1c-0.3,0.8-0.7,1.2-1.3,1.3
	c-0.5,0.9-0.9,1.3-1.8,1.4c-0.1,0.4-0.3,0.7-0.8,1.1l-0.3,0.4l-0.3,0.4l-0.6-0.4l-0.2-0.3l-0.2-0.4l-0.3-0.2l-0.2,0l-0.6,0.1
	l-1.1,0.6l-0.3,0.4l-0.1,0.1c-0.2,0-0.4-0.5-0.4-1.3c0-0.7,0.1-1.2,0.4-1.5l0.7-1l0.2-0.4l-0.1-0.3l-0.4-0.3l-0.5-0.1l-0.1-0.1
	l0.1-0.2l0.7-0.6c0.6-0.4,1.1-0.5,1.5-0.5c0.5,0,0.9,0.2,1.4,0.4l0.8,0.5l0.4,0.1c0.4,0,0.6-0.2,0.9-0.6c0.2-0.4,0.3-0.8,0.3-1.2
	c0-1-0.7-1.6-1.7-1.6c-0.5,0-0.9,0.2-1.4,0.5l-0.2,0.3l-0.2,0.5l-0.2,0.2c-0.1,0-0.4-0.4-0.7-0.8l-0.4-0.9c-0.1-0.5-0.2-0.9-0.2-1.3
	l0-0.7c-0.4-0.5-0.5-0.9-0.5-1.5c0-0.2,0-0.4,0.2-0.9c-0.2-0.4-0.3-0.6-0.3-1.1l0-0.3l0.1-0.3l0-0.3c-0.3-0.3-0.3-0.5-0.6-1.6
	c-0.1-0.6-0.2-0.9-0.3-1l-0.1-0.2c0-0.1,0.4-0.3,0.8-0.3l0.4,0l-0.1-0.5l0.2-1c0.1-0.4,0.2-0.5,0.2-0.6l-0.1-0.8l-0.2-0.5l-0.1-0.3
	l0.1-0.1c0.5,0,1.5,0.5,2.3,1.2c0.8,0.7,1,1.2,1,2.3l0,0.5c0.7,0.6,1,1.1,1,1.6c0,0.4-0.1,0.6-0.5,1c-0.7,0.7-0.9,1-0.9,1.9
	c0,1.3,0.4,2,1.2,2c0.7,0,1.2-0.7,1.3-1.7l0.1-0.9l0.1-0.9l0.1-0.7c0-0.3-0.2-0.8-0.9-1.5c-0.7-0.8-1-1.3-1-1.9
	c0-0.8,0.6-1.3,1.3-1.3l0.5,0.1c0-0.4,0-0.5,0.3-1.1c0.2-0.5,0.4-0.8,0.5-0.8l0.2,0.1l0.3,0.3l0.3,0.2l0.2,0.2
	c0.2-0.5,0.4-0.8,0.8-1.3l0.6-0.4l0.2,0.1l0.3,0.4l0.5,0.5c0.2,0.2,0.2,0.3,0.3,0.8l0.3-0.1l0.4-0.2l0.3-0.2l0.2-0.1l0.1,0.2
	l0.2,0.6l0.3,0.6l0.1,0.6v0.2l0.2,0c0.5,0,1,0.6,1,1.3c0,0.9-0.7,2-1.7,2.6l-0.1,0.7c0,2,0.6,2.4,3.8,2.8c0.8,0.1,1.5,0.3,2.2,0.4
	c0.1,0,0.8,0.2,2.1,0.7c0.7,0.2,1.2,0.3,1.6,0.3l0.6-0.3c0-0.3-0.5-0.6-2.1-1.2l-2.3-0.8c-2.3-0.9-3.4-2.2-3.4-4.2
	c0-2.3,1.8-4.1,4.3-4.1c0.9,0,1.8,0.2,3.1,0.6c1.7,0.6,1.8,0.6,1.9,0.6c0.3,0,0.5-0.2,0.6-0.6c0-0.4,0.1-0.5,0.4-0.5
	c0.3,0,0.7,0.3,0.9,0.8c0.2,0.4,0.3,0.9,0.3,1.3c0,0.8-0.5,1.4-1.3,1.5c-0.6,0.7-1.3,1-2.1,1c-1.1,0-1.6-0.2-3.4-1.3
	c-0.6-0.4-0.9-0.5-1.4-0.5c-0.6,0-1.1,0.4-1.1,0.9c0,0.5,0.4,0.8,1.3,1c0.5,0.1,0.6,0.2,0.9,0.4l0.4,0c0.9,0,1.9,0.4,2.8,1.2
	c1.6,0.5,3.1,2.1,3.1,3.5c0,1.5-1.4,2.9-3,2.9C-57.5,290.5-58.3,290.4-59.1,290.2"/>
<path class="st1" d="M-60,297.2l0.1-0.3l0.1-0.3l0.3-0.4c0.3-0.3,0.4-0.8,0.4-1.2l-0.1-0.5l-0.1-0.2l0.1-0.1l0.1-0.1h0l0.3,0.2
	l0.3,0.2l0.3-0.5l0.1-0.2l-0.2-0.7l-0.1-0.3l0.1-0.2l0.4,0.2l0.2,0.1c0.2,0,0.3-0.2,0.4-0.6l0.1-0.4l-0.1-0.1l-0.1,0l-0.3,0
	c-0.5,0-1.2-0.3-1.5-0.7l-0.7-0.9l-0.7-0.8l-0.6-0.4l-0.1-0.2l0.2-0.1c0.1,0,0.6,0.1,1.4,0.5c0.8,0.3,2,0.6,2.7,0.6
	c1.2,0,2.3-1,2.3-2.1c0-0.6-0.3-1.2-1.1-2.1l-0.5-0.3l-0.1,0.2l0.1,0.3l0.1,0.2l-0.1,0.2c-0.1,0-0.3-0.3-0.5-0.7
	c-0.2-0.6-0.5-0.9-1.3-1.3l-0.8-0.3l-0.1,0.1l0.1,0.3l0.2,0.5v0l-0.2,0.2c-0.2,0-0.2,0-0.6-0.6c-0.2-0.3-0.7-0.7-1.2-0.9l-0.4-0.1h0
	l-0.2,0.1l0.1,0.2l0.1,0.1l-0.1,0.1c-0.1,0-0.6-0.4-1-0.8c-0.4-0.5-0.7-1-0.7-1.5c0-0.9,1-1.8,2-1.8l0.7,0.1l0.9,0.4l1.1,0.7
	c0.6,0.4,1.5,0.7,2,0.7c0.2,0,0.3,0,0.8-0.1l0.4-0.3l0,0l-0.1-0.1l-0.6,0c-0.3,0-1.1-0.3-1.6-0.7l-1.2-0.7l-1.1-0.4l-0.1-0.1
	l0.1-0.1l0.3,0l1,0.3c0.3,0.1,0.7,0.2,1.2,0.5c1.1,0.6,1.8,0.8,2.3,0.8c0.6,0,1.1-0.4,1.1-0.9l-0.1-0.7l-0.2-0.3l-0.1-0.1l-0.1,0.2
	l0,0.2l0,0.1c0,0.5-0.2,0.6-0.7,0.6c-0.4,0-1-0.2-2.4-0.7c-1.3-0.5-2.1-0.7-2.8-0.7c-2,0-3.7,1.5-3.7,3.3c0,1.5,1.1,2.7,3.2,3.5
	l2.2,0.9c1.9,0.7,2.6,1.2,2.6,1.9c0,0.6-0.5,0.9-1.4,0.9c-0.4,0-0.9-0.1-1.7-0.4c-2.1-0.6-3.5-0.9-4.7-0.9c-2,0-3.4,0.5-4.5,1.6
	l-0.4,0.2l-0.4-0.1l-0.6-0.2l-0.6,0.3l-0.3,0.3l-0.2,0.1l-0.7-0.7l-0.3-0.6l0-0.7l0-0.5l0.1-0.5l0.1-0.4l0.1-0.1l0.2,0.4l0,0.2v0.1
	c0,0.7,0.3,1.4,0.6,1.4c0.3,0,0.5-0.4,0.7-1.3l0.2-0.3c0.1,0,0.2,0.1,0.2,0.5l0.4,0.8l0.3,0.2c0.2,0,0.4-0.3,0.5-1l0.3-0.5l0.1,0.1
	l0.2,0.3l0.3,0.3l0.3,0.1l0.3-0.1l0.2-0.2l-0.2-0.2c-0.2-0.2-0.3-0.4-0.5-0.8l-0.2-0.6l-0.1-0.2l-0.1,0l-0.1,0l-0.6,0.2l-0.2,0
	l-0.1-0.1l0.2-0.3c0.7-0.5,1.1-1.3,1.2-2.6c0.1-0.7,0.2-1,0.5-1.5l0.2-0.2l0.1,0.2l-0.1,0.4l-0.1,0.3v0.1l0.1,0.1l0.3-0.1l0.3-0.3
	l0.4-1l-0.2-0.6l-0.4-0.3l-0.2,0l-0.2,0l-0.3-0.2l0-0.2l0-0.3l-0.2-0.6l-0.1-0.3l-0.1-0.2l-0.2,0.1l-0.4,0.2l-0.3,0.3
	c-0.4,0.4-0.4,0.4-0.6,0.4l-0.2-0.1l0-0.1l0.1-0.5c0-0.4-0.3-1.1-0.7-1.5c-0.5,0.5-0.8,1.1-0.8,1.6v0.3l-0.1,0.2h0l-0.2-0.1
	l-0.3-0.4l-0.4-0.3l-0.2-0.2l-0.1,0.2c-0.3,0.5-0.3,0.8-0.4,1.2l-0.1,0.4l-0.2-0.1c-0.4-0.2-0.4-0.2-0.6-0.2c-0.5,0-0.8,0.3-0.8,0.8
	l0.3,0.8c0.2,0.4,0.6,0.8,0.7,0.8l0-0.1v-0.1l0-0.4l-0.1-0.3v0l0.1-0.1c0.2,0,0.5,0.7,0.6,2c0.2,1.2,0.5,2,1,2.4l0.2,0.3l-0.1,0.1
	l-0.4-0.1l-0.3-0.1l-0.6,0.6l-0.2,1.4l-0.2,2c0,0.4,0,0.9,0.1,1.5c0.1,0.5,0.2,0.9,0.2,1.2c0,1.5-1,2.7-2.6,3.1l-1.7,0.5
	c-1.1,0.3-1.6,1-1.7,2.2c0.3-0.2,0.3-0.2,0.8-0.3l0.5-0.1l0.5-0.1l0.3-0.3l0.4-0.5l0.4-0.3l0.1,0.1l-0.2,0.4l-0.2,0.6
	c0,0.3,0.1,0.5,0.4,1l0.1-0.3l0.4-0.5c0.4-0.4,0.6-0.9,0.6-1.1c0-0.4,0-0.5,0.1-0.5l0.1,0.2l0.1,0.1l0.2,0.1l0.2-0.1l0.4-0.4
	l0.3-0.4l0.1-0.5V295l0.1-0.2l0.3,0.3l0.2,0.1h0l0.2-0.1l0.5-0.9l0-0.5l-0.1-0.4v0l0.1-0.1l0.5,0.5l0.2,0.2l0.5-0.4l0.2-0.3l0.1-0.2
	l-0.1-0.2l-0.2-0.3l0-0.2c0-0.4,0.1-0.7,0.4-1.2l0.3-0.6l0.1-0.2l0.1,0.1l0,0.3v0.2v0.2l0.2,0.1l0.3-0.1l0.7-0.2l0.6-0.3
	c1-0.6,1.3-0.7,1.8-0.7c0.3,0,0.7,0.1,1.3,0.4l0.3,0.1l0.2-0.1l0.1-0.2l-0.1-0.3l-0.2-0.4l0.1-0.1l0.2,0.1c0.1,0.1,0.3,0.4,0.6,1
	c0.5,0.8,1.1,1.4,1.7,1.5l1.1,0.3c0.4,0.1,0.5,0.2,0.5,0.6c0,0.8-0.4,1.5-1.1,1.9l-0.9,0.6c-0.4,0.2-0.6,0.8-0.6,1.3
	c0,0.3,0.1,0.9,0.2,1.3l0.2-0.2l0.5-0.2l0.4-0.4l0.2-0.5l0.2-0.5l0.3-0.4l0.1,0.4v0.1v0.1C-60.4,296.5-60.3,296.6-60,297.2"/>
<path class="st1" d="M-75.7,304.3c0-1.2,0.5-1.7,2.3-2.6c3.6-1.7,5.5-3.3,5.5-4.5c0-0.2-0.1-0.6-0.3-1.3c-0.1-0.5-0.2-0.8-0.2-1.1
	c0-0.5,0.5-1.4,1.1-1.9l0.5-0.4l0.5-0.8l0-0.1v-0.1l0.4-0.3l0.2,0l0.2,0l0.2,0.1l0.1,0.2l0.2,0.2l0.2,0.1l0.2-0.1l0.3-0.1l0.2,0.2
	c0,0.5-0.3,1.2-0.9,2c-1,1.3-1.3,2-1.3,2.8c0,0.6,0.2,1.2,0.6,1.7l0.1,0.2l-0.2,0.3l-0.2,0.2l-0.5,0.4l-0.3-0.2l-0.1-0.3l-0.2-0.1
	l-0.1,0.1l-0.1,0.3v0.4l-0.2,0.5l-0.4,0.4l-0.2,0.1l-0.2-0.2l-0.2-0.5l-0.1-0.1l-0.2,0.3c-0.1,0.6-0.2,0.9-0.3,1.1l-0.4,0.3
	l-0.3,0.2l-0.2-0.1l-0.2-0.4l-0.1-0.1c-0.1,0-0.2,0.2-0.2,0.6c-0.1,0.9-0.3,1.3-0.8,1.7c-0.4,0.3-0.5,0.4-0.7,0.7
	c-0.2-0.3-0.3-0.6-0.3-1l0.1-0.5l0.2-0.4l-0.1-0.1l-0.1,0.1l-0.3,0.2c-0.5,0.3-0.6,0.4-0.7,0.9c-0.2,0.7-0.5,1-1.2,1.1
	c-0.9,0.2-1,0.2-1.3,0.5L-75.7,304.3z"/>
<path class="st1" d="M-77.4,278.5v0.3l0,0.4l-0.1,0.4l-0.1,0.6c0,0.5,0.1,0.7,0.4,1.2l0.3,0.8l-0.1,0.2l-0.1-0.1l-0.2-0.3
	c-0.2-0.2-0.3-0.3-0.8-0.3l-0.5,0c0.2,0.4,0.2,0.6,0.3,0.9c0.2,0.8,0.2,0.9,0.7,1.3c0.5,0.4,0.5,0.5,0.5,0.6l-0.2,0.2l-0.2,0l-0.1,0
	l-0.3,0.5l0.2,0.6l0.2,0.3l0.3,0.2l0.1,0.3l-0.2,0.2l-0.2-0.1l-0.2-0.1l-0.2,0.2l0.1,0.4l0.1,0.6l0.3,0.5l0.4,0.3l0.5,0.2l0.1,0.2
	l-0.2,0.2l-0.3,0l-0.3,0l-0.3,0.2l0,0.4l0.1,0.4c0.1,0.4,0.2,0.7,0.4,0.7l0.2-0.1c0.4-0.3,1.1-0.5,1.6-0.5c0.5,0,1.1,0.1,1.3,0.1
	l0.2,0.1l0.1-0.3l0.1-0.5l0.1-0.8l0.1-0.6V288l-0.2,0.2c-0.4,0.4-0.7,0.5-1.2,0.5c-1.2,0-1.9-1.3-1.9-3.5c0-0.9,0.1-2.2,0.4-3.8
	l0.1-0.7C-75.9,279.9-76.5,279.1-77.4,278.5"/>
<polygon class="st1" points="-75.5,282.7 -75.5,283.1 -75.6,283.5 -75.6,283.9 -75.6,284.1 -75.4,283.9 -75.2,283.7 -74.8,282.9 
	-74.9,282.6 -75.3,282.2 "/>
<path class="st1" d="M-78,294.3l0.6,0.4c0.3,0.4,0.6,0.5,1,0.5l0.4,0l0.3-0.1l0.3-0.1l0.2-0.1l-0.5-0.4l-0.6-0.3l-0.6-0.2L-78,294.3
	z"/>
<path class="st1" d="M-74.4,301.4c0-0.8,0.8-1.5,1.9-1.5c0.5,0,0.8,0.1,0.8,0.3c0,0.1-0.2,0.3-0.7,0.6c0,0-0.3,0.2-0.8,0.4
	c-0.5,0.3-0.7,0.4-1.2,0.6L-74.4,301.4z"/>
<path class="st1" d="M-63.6,295.3l0.7-0.2l0.5,0l0.3-0.2l0.4-0.2c0.5-0.3,0.6-0.4,0.6-0.5c0-0.1-0.2-0.2-0.7-0.2
	C-62.7,294-63.2,294.4-63.6,295.3"/>
<path class="st5" d="M-71.6,280.1l0.4,0.2l0.5,0.3c0.4,0.2,0.6,0.2,0.6,0.4l0,0.3l-0.1,0.4l-0.4,0.4c-0.2,0-0.4-0.3-0.7-0.7l-0.4-1
	l0-0.1L-71.6,280.1"/>
<polygon class="st5" points="-68.1,280.3 -68.7,280.6 -69.2,280.8 -69.4,281 -69.4,281.1 -69.4,281.5 -69.4,281.9 -69.1,282.2 
	-69.1,282.2 -68.9,282.1 -68.6,281.5 -68,281 -67.8,280.5 -67.7,280.4 -67.9,280.2 "/>
<path class="st5" d="M-70.7,282.7l0.4,0.3l0.4,0.1l0.6-0.2l0.3-0.1l0.2,0l0.4,0.5c0,0.4-0.3,0.7-0.7,1.3l-0.3,0.6l-0.6,0.4
	c-0.3,0-0.5-0.2-0.9-1c-0.3-0.6-0.5-1-0.5-1.3l0.3-0.5L-70.7,282.7z"/>
<path class="st1" d="M-70.4,284l0,0.5l0.4,0.4c0.2,0,0.4-0.4,0.5-0.9l0.1-0.4l-0.3-0.2l-0.1,0H-70l-0.1,0l-0.2,0.4"/>
<path class="st0" d="M-100.2,272.7h2.6v5h3v-5h7.7v5h3.1v-5h2.6v-12.9h-3l-0.1-0.1c-0.4-0.5-0.8-0.8-1.4-0.8c-0.6,0-1.1,0.3-1.4,0.9
	h-2.1c-0.2-0.5-0.8-0.9-1.4-0.9c-0.7,0-1.2,0.3-1.5,0.9h-2.3c-0.4-0.7-0.8-0.9-1.5-0.9c-0.7,0-1.1,0.3-1.4,0.9h-2.8V272.7z"/>
<rect x="-99.1" y="260.9" class="st4" width="16.8" height="10.9"/>
<path class="st1" d="M-97.3,263.4c-0.4,0-0.8,0.4-0.8,0.8c0,0.4,0.4,0.7,0.8,0.7c0.4,0,0.8-0.3,0.8-0.7
	C-96.5,263.7-96.9,263.4-97.3,263.4"/>
<path class="st0" d="M-97.3,265c-0.5,0-0.9-0.4-0.9-0.9c0-0.5,0.4-0.9,0.9-0.9c0.5,0,0.9,0.4,0.9,0.9C-96.4,264.6-96.8,265-97.3,265
	 M-97.3,263.5l-0.7,0.6l0.7,0.7l0.7-0.7L-97.3,263.5z"/>
<path class="st1" d="M-84.1,263.4c-0.4,0-0.8,0.4-0.8,0.8c0,0.4,0.4,0.7,0.8,0.7c0.4,0,0.8-0.3,0.8-0.7
	C-83.3,263.7-83.7,263.4-84.1,263.4"/>
<path class="st0" d="M-84.1,265c-0.5,0-0.9-0.4-0.9-0.9c0-0.5,0.4-0.9,0.9-0.9c0.5,0,0.9,0.4,0.9,0.9C-83.2,264.6-83.6,265-84.1,265
	 M-84.1,263.5l-0.7,0.6l0.7,0.7l0.7-0.7L-84.1,263.5z"/>
<path class="st1" d="M-97.3,269.3c-0.4,0-0.8,0.3-0.8,0.8c0,0.4,0.4,0.8,0.8,0.8c0.4,0,0.8-0.3,0.8-0.8
	C-96.5,269.6-96.9,269.3-97.3,269.3"/>
<path class="st0" d="M-97.3,270.9c-0.5,0-0.9-0.4-0.9-0.9c0-0.5,0.4-0.9,0.9-0.9c0.5,0,0.9,0.4,0.9,0.9
	C-96.4,270.5-96.8,270.9-97.3,270.9 M-97.3,269.4l-0.7,0.7c0,0.4,0.3,0.7,0.7,0.7l0.7-0.7L-97.3,269.4z"/>
<path class="st1" d="M-84.1,269.3c-0.4,0-0.8,0.3-0.8,0.8c0,0.4,0.4,0.8,0.8,0.8c0.4,0,0.8-0.3,0.8-0.8
	C-83.3,269.6-83.7,269.3-84.1,269.3"/>
<path class="st0" d="M-84.1,270.9c-0.5,0-0.9-0.4-0.9-0.9c0-0.5,0.4-0.9,0.9-0.9c0.5,0,0.9,0.4,0.9,0.9
	C-83.2,270.5-83.6,270.9-84.1,270.9 M-84.1,269.4l-0.7,0.7l0.7,0.7l0.7-0.7L-84.1,269.4z"/>
<path class="st1" d="M-94.8,267c1.1,1.3,2.5,1.9,4.1,1.9c1.6,0,2.6-0.5,3.9-1.9c-1.3-1.2-2.4-1.7-4-1.7
	C-92.4,265.3-93.8,265.9-94.8,267"/>
<path class="st0" d="M-94,267c1.1-0.8,2.1-1.2,3.2-1.2c1.2,0,2.1,0.3,3.2,1.2c-1,0.9-1.9,1.3-3.2,1.3C-92,268.3-93.1,267.9-94,267"
	/>
<path class="st1" d="M-92.6,266.8c0.7,0.4,1.2,0.5,1.8,0.5c0.7,0,1.4-0.2,1.9-0.5c-0.6-0.3-1.3-0.4-1.9-0.4
	C-91.5,266.3-92.1,266.5-92.6,266.8"/>
<rect x="-99.3" y="261.4" class="st0" width="17.3" height="0.5"/>
<path class="st6" d="M-99.3,261.5H-82v0.5h-17.2V261.5z M-99.3,262H-82v-0.6h-17.4V262z"/>
<path class="st1" d="M-96.6,260.7v1.3v0.3c0,0.4,0.3,0.7,0.7,0.7c0.5,0,0.7-0.2,0.7-0.7V262v-1.3c0-0.6-0.3-1-0.7-1l-0.3,0.1
	l-0.2,0.1l-0.2,0.2l-0.1,0.3"/>
<path class="st1" d="M-91.4,262v0.3c0,0.4,0.3,0.6,0.7,0.6c0.5,0,0.7-0.2,0.7-0.6V262v-1.3c0-0.6-0.3-1-0.7-1
	c-0.5,0-0.8,0.4-0.8,0.9"/>
<path class="st1" d="M-86.4,260.7v1.3v0.3c0,0.4,0.3,0.7,0.7,0.7c0.5,0,0.7-0.2,0.7-0.7V262v-1.3c0-0.6-0.3-1-0.7-1l-0.3,0.1
	l-0.2,0.1l-0.2,0.2l-0.1,0.3"/>
<rect x="-97" y="273.9" class="st1" width="1.6" height="1.9"/>
<rect x="-97" y="276.3" class="st1" width="1.6" height="0.6"/>
<rect x="-86.3" y="273.9" class="st1" width="1.6" height="1.9"/>
<rect x="-86.3" y="276.3" class="st1" width="1.6" height="0.6"/>
</svg>
