<?xml version="1.0" encoding="UTF-8" standalone="no"?>
<svg
   xmlns:dc="http://purl.org/dc/elements/1.1/"
   xmlns:cc="http://creativecommons.org/ns#"
   xmlns:rdf="http://www.w3.org/1999/02/22-rdf-syntax-ns#"
   xmlns:svg="http://www.w3.org/2000/svg"
   xmlns="http://www.w3.org/2000/svg"
   xmlns:sodipodi="http://sodipodi.sourceforge.net/DTD/sodipodi-0.dtd"
   xmlns:inkscape="http://www.inkscape.org/namespaces/inkscape"
   width="500"
   height="500"
   viewBox="0 0 113.17418 113.2"
   preserveAspectRatio="xMinYMin meet"
   version="1.1"
   id="svg8"
   sodipodi:docname="gulp.svg"
   inkscape:version="0.92.3 (2405546, 2018-03-11)">
  <metadata
     id="metadata14">
    <rdf:RDF>
      <cc:Work
         rdf:about="">
        <dc:format>image/svg+xml</dc:format>
        <dc:type
           rdf:resource="http://purl.org/dc/dcmitype/StillImage" />
        <dc:title></dc:title>
      </cc:Work>
    </rdf:RDF>
  </metadata>
  <defs
     id="defs12" />
  <sodipodi:namedview
     pagecolor="#ffffff"
     bordercolor="#666666"
     borderopacity="1"
     objecttolerance="10"
     gridtolerance="10"
     guidetolerance="10"
     inkscape:pageopacity="0"
     inkscape:pageshadow="2"
     inkscape:window-width="1920"
     inkscape:window-height="1172"
     id="namedview10"
     showgrid="false"
     inkscape:zoom="0.7"
     inkscape:cx="132.90315"
     inkscape:cy="392.85714"
     inkscape:window-x="0"
     inkscape:window-y="0"
     inkscape:window-maximized="1"
     inkscape:current-layer="svg8" />
  <path
     d="m 72.308246,107.54268 1.054319,-17.568095 2.91118,-4.969502 c 0,0 -6.625873,2.710496 -17.718662,2.710496 -11.092985,0 -17.618418,-2.660377 -17.618418,-2.660377 l 3.26262,5.420991 1.154176,17.066487 c 0,1.82966 6.033922,3.31274 13.477489,3.31274 7.443179,0 13.477296,-1.48308 13.477296,-3.31274 M 68.982487,25.502193 71.195451,16.755062 83.450381,3.86 80.2204,1.1089028 67.246076,14.845353 64.676623,25.295879 a 172.153,172.153 0 0 0 -5.803515,-0.09655 c -13.664381,0 -24.741629,1.557286 -24.741629,3.477873 0,1.920777 11.077248,3.477873 24.741629,3.477873 13.664185,0 24.741238,-1.557096 24.741238,-3.477873 0,-1.41431 -6.007696,-2.631619 -14.631859,-3.175007"
     id="path2"
     inkscape:connector-curvature="0"
     style="fill:#d34a47;stroke-width:0.19427292" />
  <path
     d="m 67.695235,30.400792 c 0,0 -0.47927,0.107423 -1.889109,0.11345 -1.410227,0.0059 -2.41151,-0.0092 -2.810353,-0.372422 -0.107235,-0.09752 -0.165908,-0.291213 -0.165326,-0.422344 0.0012,-0.249645 0.178343,-0.396711 0.404088,-0.488792 l 0.213506,0.334923 c -0.09286,0.03204 -0.1459,0.06993 -0.146094,0.110347 -8.04e-4,0.189614 1.441894,0.319384 2.545364,0.305397 1.103664,-0.0136 2.437154,-0.104521 2.438319,-0.291409 0,-0.05656 -0.100821,-0.109762 -0.276255,-0.151726 l 0.212535,-0.332597 c 0.28597,0.08879 0.53561,0.260326 0.535027,0.557179 -0.0027,0.504717 -0.644987,0.581457 -1.061702,0.637993"
     id="path4"
     inkscape:connector-curvature="0"
     style="fill:#ffffff;stroke-width:0.19427292" />
  <path
     d="M 83.426292,3.885451 C 83.734408,3.5295396 83.266793,2.6191785 82.381879,1.8523801 81.496579,1.0859749 80.529099,0.75299139 80.2204,1.1089028 c -0.308312,0.3559037 0.159497,1.2662714 1.0448,2.0326755 0.884912,0.7666024 1.85278,1.0999735 2.161092,0.7438727 m -11.70747,60.745451 c -0.290438,-2.79442 6.112215,-6.841519 4.469054,-6.971094 -3.537321,0.202233 -5.297822,4.145393 -7.077557,8.275246 -0.652174,1.513583 -2.883786,7.967712 -4.34744,7.173144 -1.463263,-0.794188 1.897076,-6.101533 2.838912,-9.253414 -1.086764,0.796901 -5.072273,3.89342 -6.099394,0.993509 -1.651319,1.402459 -5.179899,2.162257 -4.781833,-1.52174 -0.878502,1.556122 -2.850179,3.72868 -5.216811,2.825892 -3.107979,-1.185259 1.80091,-11.0856 3.021526,-10.586127 1.220812,0.499282 -0.246338,2.754601 -0.630609,3.630381 -0.845087,1.927383 -1.821309,4.350353 -1.169135,4.846328 1.117264,0.849752 4.157634,-3.214627 4.225242,-3.303995 0.568637,-0.751253 2.188679,-5.666166 3.494387,-5.101805 1.305708,0.564363 -3.256792,7.053666 -1.550881,8.341497 0.344058,0.259938 1.75176,-0.16027 2.608114,-1.086762 0.554067,-0.599329 0.363485,-1.926797 2.210438,-6.331352 1.846953,-4.404363 3.493027,-9.889462 4.759687,-9.47158 1.26666,0.417684 0.222636,3.232895 -0.231768,4.282354 -2.13234,4.925594 -5.81964,13.063109 -4.080703,12.44707 1.738936,-0.615849 2.644443,-0.651981 4.347245,-2.644641 1.702802,-1.99266 1.624316,-5.274899 2.759259,-5.205152 1.135331,0.06993 0.944749,1.122316 0.669464,1.923688 1.11707,-1.278313 5.295103,-3.970549 6.303768,-1.304152 1.194779,3.15674 -5.977583,7.716518 -4.189302,7.483977 1.743601,-0.226719 4.568329,-2.015778 5.774375,-3.642423 l 3.319735,-29.845374 c 0,0 -3.340522,2.7645 -24.592816,2.7645 -21.252486,0 -24.247397,-2.706999 -24.247397,-2.706999 l 2.826282,27.24173 C 38.63084,53.6199 42.193223,44.995737 47.808488,45.2852 c 2.5543,0.131717 5.964178,5.050127 3.043284,5.216813 -1.236352,0.0703 -1.361853,-2.455027 -2.825894,-2.825893 -1.056456,-0.267706 -2.527296,0.591174 -3.477873,1.521741 -1.895716,1.855302 -5.972922,9.175313 -5.434203,12.82473 0.686367,4.652641 6.420332,-1.61674 7.390531,-3.478063 0.683259,-1.311154 1.14485,-5.195833 2.639198,-4.78825 1.494541,0.407588 -0.130357,4.416602 -1.213623,7.961113 -1.216926,3.980068 -1.856666,8.178497 -3.381903,7.695536 -1.525432,-0.482573 0.959319,-5.6207 0.869371,-6.520965 -1.433733,1.322807 -4.075069,4.671684 -7.454252,3.014145 l 1.755256,16.916901 c 0,0 4.665075,3.685936 18.718196,3.685936 14.053121,0 18.890905,-3.628435 18.890905,-3.628435 l 2.179547,-19.593782 c -1.78323,1.736409 -7.426859,4.819912 -7.788206,1.344175"
     id="path6"
     inkscape:connector-curvature="0"
     style="fill:#d34a47;stroke-width:0.19427292" />
</svg>
