<?xml version="1.0" encoding="UTF-8" standalone="no"?>
<!-- Created with Inkscape (http://www.inkscape.org/) -->

<svg
   xmlns:dc="http://purl.org/dc/elements/1.1/"
   xmlns:cc="http://creativecommons.org/ns#"
   xmlns:rdf="http://www.w3.org/1999/02/22-rdf-syntax-ns#"
   xmlns:svg="http://www.w3.org/2000/svg"
   xmlns="http://www.w3.org/2000/svg"
   xmlns:sodipodi="http://sodipodi.sourceforge.net/DTD/sodipodi-0.dtd"
   xmlns:inkscape="http://www.inkscape.org/namespaces/inkscape"
   width="210mm"
   height="210mm"
   viewBox="0 0 210 210"
   version="1.1"
   id="svg8"
   inkscape:version="0.92.3 (2405546, 2018-03-11)"
   sodipodi:docname="jquery.svg">
  <defs
     id="defs2" />
  <sodipodi:namedview
     id="base"
     pagecolor="#ffffff"
     bordercolor="#666666"
     borderopacity="1.0"
     inkscape:pageopacity="0.0"
     inkscape:pageshadow="2"
     inkscape:zoom="0.69044441"
     inkscape:cx="162.63144"
     inkscape:cy="152.85419"
     inkscape:document-units="mm"
     inkscape:current-layer="layer1"
     showgrid="false"
     inkscape:window-width="1920"
     inkscape:window-height="1172"
     inkscape:window-x="0"
     inkscape:window-y="0"
     inkscape:window-maximized="1" />
  <metadata
     id="metadata5">
    <rdf:RDF>
      <cc:Work
         rdf:about="">
        <dc:format>image/svg+xml</dc:format>
        <dc:type
           rdf:resource="http://purl.org/dc/dcmitype/StillImage" />
        <dc:title></dc:title>
      </cc:Work>
    </rdf:RDF>
  </metadata>
  <g
     inkscape:label="Livello 1"
     inkscape:groupmode="layer"
     id="layer1"
     transform="translate(0,-87)">
    <path
       style="fill:#00ff00;fill-opacity:0;stroke-width:0.26458335"
       d="m -494.19442,36.001955 c -0.69122,-0.0545 -1.25677,-0.14623 -1.25677,-0.20382 0,-0.0576 0.42554,-1.89057 0.94563,-4.07327 l 0.94563,-3.96855 1.10489,-0.15195 c 0.60769,-0.0836 1.75974,-0.23852 2.5601,-0.34433 l 1.45521,-0.19239 0.99042,-1.85175 c 1.48315,-2.77301 2.71286,-7.00904 3.91709,-13.49342 1.21482,-6.5413902 1.57478,-8.1098302 2.53514,-11.04636024 l 0.6706,-2.05051996 h 4.74077 c 2.60743,0 4.74077,0.0525 4.74077,0.1167 0,0.35306996 -4.15268,18.9350902 -5.04929,22.5940702 -1.87508,7.65206 -2.68896,9.81894 -4.39889,11.71163 -2.45761,2.72028 -6.35684,3.54884 -13.9013,2.95396 z m 115.68871,-13.83256 c -1.81921,-0.10157 -3.98419,-0.38134 -4.81107,-0.62172 -2.87745,-0.8365 -5.18315,-3.30143 -5.78997,-6.18982 -0.74001,-3.52238 1.45823,-14.39205024 3.88954,-19.2326702 2.48601,-4.94955 8.54442,-8.3388498 15.71311,-8.7905098 5.98681,-0.37719 10.98738,1.82754 12.87816,5.6779298 0.7124,1.45072 0.74121,1.66196 0.71156,5.21612 -0.0231,2.7731 -0.19215,4.50222 -0.67242,6.87916 l -0.64151,3.175 -10.91077,0.0691 -10.91077,0.0691 -0.27942,0.72466 c -0.37022,0.9601702 -0.13358,2.6165802 0.47077,3.2952602 1.05111,1.18039 1.88381,1.30111 10.9197,1.58307 4.73866,0.14787 8.6651,0.31533 8.72543,0.37214 0.1227,0.11555 -1.34659,7.16791 -1.56072,7.49121 -0.19174,0.28948 -13.73865,0.50492 -17.73162,0.28199 z m 13.11196,-21.78848024 c 0.24041,-0.95789 -0.31993,-2.62933996 -1.13499,-3.38556996 -2.22968,-2.06874 -7.36006,-1.61453 -9.42038,0.83402 -0.66155,0.7862 -1.76248,2.68179996 -1.76248,3.03464996 0,0.0786 2.73617,0.14283004 6.08038,0.14283004 h 6.08037 z M -455.76369,22.001155 c -5.85001,-0.55388 -9.86349,-3.86513 -11.19864,-9.23924 -1.25309,-5.0437902 -0.50443,-12.48809024 1.84101,-18.3059402 2.5674,-6.3684398 6.40734,-10.8925098 11.34201,-13.3627098 3.00315,-1.50332 5.57455,-2.10875 9.53993,-2.24613 3.20012,-0.11088 4.02952,-0.0504 5.9437,0.4337 5.93998,1.50209 9.60258,4.71321 11.45243,10.04069 0.68756,1.9801498 0.79647,2.6712498 0.79906,5.0707398 0.004,3.4086 -0.53256,5.69897996 -3.06638,13.09687 -0.99684,2.9104202 -1.87906,5.5000302 -1.96051,5.7546902 -0.13323,0.41661 0.0805,0.46302 2.13174,0.46302 1.88815,0 2.27982,0.0708 2.27982,0.41235 0,0.2268 -0.34412,1.80438 -0.76471,3.50573 -0.42058,1.70136 -0.83957,3.4208 -0.93108,3.82098 l -0.16637,0.72761 -13.15798,-0.0423 c -7.23689,-0.0233 -13.5747,-0.0818 -14.08403,-0.13001 z m 15.18516,-9.02191 c 0.79925,-2.65172 2.71524,-9.7319302 3.48808,-12.88963024 1.37046,-5.59952996 1.09158,-7.85224996 -1.26369,-10.20751976 -1.54963,-1.54963 -2.87032,-1.97212 -6.16475,-1.97212 -2.64846,0 -3.05889,0.0686 -4.55992,0.76187 -3.58165,1.6542998 -5.63702,5.3619298 -7.21718,13.0188298 -1.19263,5.77913 -0.98111,7.96709 0.94972,9.8238002 1.74834,1.68123 2.73863,1.88775 9.1559,1.90936 4.9915,0.0168 5.48454,-0.0223 5.61184,-0.44459 z m 24.2681,8.89578 c -1.76247,-0.2927 -3.85992,-1.40644 -4.68443,-2.48742 -1.92388,-2.52235 -2.28477,-5.25971 -1.44656,-10.9724302 0.57426,-3.91383 3.59148,-19.4227198 3.86463,-19.8646798 0.0828,-0.13401 2.11348,-0.24365 4.51258,-0.24365 h 4.362 l -0.13316,0.8599 c -0.0732,0.47294 -0.20517,1.5742698 -0.29319,2.4473898 -0.088,0.87313 -0.63818,3.6711 -1.2226,6.21771 -0.58441,2.54661996 -1.23161,5.58271 -1.43823,6.74688 -0.38685,2.17971 -0.50442,6.8342402 -0.20985,8.3071402 l 0.16653,0.83265 4.773,-0.072 4.77299,-0.072 0.84925,-3.8364602 c 0.46708,-2.11005 1.7185,-7.79529 2.78093,-12.63385 l 1.9317,-8.7973998 h 4.4682 c 4.13146,0 4.45783,0.0349 4.33058,0.46302 -0.0757,0.25466 -1.63719,7.6067698 -3.47002,16.3380198 -1.83282,8.7312502 -3.39917,16.1428902 -3.48077,16.4703202 l -0.14837,0.59531 -9.43017,-0.0309 c -5.18659,-0.017 -10.07136,-0.13742 -10.85504,-0.26756 z m 61.08841,0.15762 c 0,-0.0844 1.60735,-7.70268 3.57188,-16.9296202 1.96453,-9.22694 3.57187,-16.8491698 3.57187,-16.9382898 0,-0.31516 22.83393,0.035 23.84803,0.36567 2.13635,0.69668 3.1871,2.2134198 3.8181,5.5113698 0.20884,1.0915 0.37971,2.09313 0.37971,2.22585 0,0.14122 -4.27203,0.2413 -10.3,0.2413 h -10.29999 l -0.29334,1.38907 c -0.16134,0.76398 -1.39175,6.50875 -2.73424,12.7661402 l -2.44088,11.37709 -4.56057,0.0724 c -2.50831,0.0398 -4.56057,0.003 -4.56057,-0.081 z m 28.45927,-1.70109 c 0.90194,-2.21969 1.22412,-4.80459 0.9088,-7.29154 -0.29652,-2.33871 -0.42613,-2.86879 -1.97184,-8.0644202 -0.62774,-2.11005 -1.2251,-4.34247004 -1.32746,-4.96094004 l -0.18611,-1.12447996 h 5.0065 5.00651 l 0.74227,2.51355 c 0.40825,1.38244 0.81493,2.51302 0.90373,2.51238 0.0888,-5.3e-4 3.3563,-4.64407004 7.2611,-10.31875 l 7.09965,-10.3175898 h 5.54982 c 4.36375,0 5.50964,0.0707 5.36181,0.33073 -0.10341,0.1819 -1.17534,1.81901 -2.38207,3.63802 -1.99418,3.0060198 -4.11846,5.8066998 -11.23821,14.8166598 -4.94377,6.25629 -8.69389,12.5193602 -10.53516,17.5948002 l -0.76788,2.11666 -5.0385,0.0718 -5.0385,0.0718 z M -479.98293,-4.3509652 c 0.0582,-0.1819 0.35912,-1.46182 0.66871,-2.84427 0.30959,-1.38245 0.67955,-2.9600298 0.82212,-3.5057298 l 0.25923,-0.99219 h 4.7523 c 2.71631,0 4.7523,0.10429 4.7523,0.24342 0,0.28785 -1.27823,6.2947998 -1.48241,6.9664798 -0.1274,0.41909 -0.6026,0.46302 -5.00941,0.46302 -3.77497,0 -4.84488,-0.0743 -4.76284,-0.33073 z m 87.45466,-34.3413698 c -16.43751,-1.43097 -30.14856,-6.88546 -43.03122,-17.11855 -3.6667,-2.912574 -10.46607,-9.706571 -13.30737,-13.296853 -10.23919,-12.938308 -15.87046,-26.984609 -16.99782,-42.398312 -0.91456,-12.50439 2.05639,-24.39732 8.53408,-34.16254 2.05645,-3.10013 5.7837,-7.67216 6.61901,-8.1192 0.53442,-0.28602 0.56316,-0.25631 0.43421,0.44886 -1.11237,6.08331 -1.8045,10.71027 -2.06528,13.80667 -0.38874,4.61575 -0.18245,13.85226 0.39578,17.72046 2.14017,14.31741 7.88034,26.214131 17.94911,37.200253 9.20324,10.041734 25.39331,20.692359 37.57415,24.718127 18.2339,6.026305 38.47193,5.009975 54.56306,-2.740073 5.43125,-2.615879 10.50404,-6.07279 14.46597,-9.857991 2.29368,-2.191367 2.3235,-2.087388 0.4013,1.399371 -3.15796,5.728385 -7.36038,10.977094 -12.34823,15.422588 -10.25749,9.14215 -21.53897,14.42198 -35.19508,16.47159 -4.15477,0.62358 -13.59053,0.88874 -17.99167,0.5056 z m 20.78662,-45.517122 c -11.54063,-1.100778 -22.46068,-5.747006 -31.28626,-13.311579 -14.2304,-12.197154 -20.97347,-26.524654 -20.37337,-43.288784 0.0807,-2.25558 0.34328,-5.11308 0.58343,-6.35 1.25195,-6.4485 4.11198,-12.45863 8.66173,-18.20198 0.72566,-0.91603 1.348,-1.63041 1.38297,-1.5875 0.035,0.0429 -0.1509,1.32817 -0.41305,2.85614 -3.32167,19.3611 1.37871,35.99449 13.64647,48.29123 8.68056,8.70107 21.88555,16.064847 32.94063,18.369384 6.19995,1.292439 13.78744,1.405263 19.41475,0.288692 9.12836,-1.81125 17.39751,-6.187096 24.00985,-12.705456 l 2.01731,-1.98864 -0.8901,1.94527 c -5.48987,11.997841 -16.11049,20.432673 -30.35073,24.104365 -5.73493,1.478687 -13.63419,2.12344 -19.34363,1.578858 z m 17.31338,-40.110003 c -8.93796,-0.90439 -16.44092,-4.33531 -22.19952,-10.15131 -5.15374,-5.2051 -9.16485,-12.48717 -10.49554,-19.05438 -0.33965,-1.67627 -0.41075,-3.02489 -0.3048,-5.7818 0.15725,-4.09173 0.66714,-6.23994 2.31737,-9.76323 1.0218,-2.18158 3.39165,-5.99784 3.59704,-5.79245 0.0589,0.0589 -0.0117,0.92848 -0.15686,1.93251 -0.38773,2.68239 -0.32885,7.82635 0.12135,10.60216 1.81404,11.1848 9.49184,20.76435 21.43242,26.74114 5.57767,2.79186 9.86805,3.85 15.61042,3.85 2.78009,0 4.37665,-0.14206 6.39985,-0.56944 2.93911,-0.62086 6.62239,-1.84107 8.64156,-2.8628 0.70569,-0.35709 1.33481,-0.59752 1.39804,-0.53429 0.0632,0.0632 -0.38172,0.75584 -0.98877,1.53914 -4.34014,5.60018 -9.40341,8.59003 -16.31017,9.63111 -2.33772,0.35237 -6.6797,0.45473 -9.06239,0.21364 z"
       id="path21"
       inkscape:connector-curvature="0" />
    <path
       style="fill:#121a27;stroke-width:0.25331709"
       d="m 9.8925626,291.35441 c -1.208637,-0.0745 -1.698328,-0.19887 -1.61979,-0.41136 0.06194,-0.16751 0.488092,-1.91822 0.947059,-3.89048 l 0.8344964,-3.58593 2.449288,-0.30004 2.449288,-0.30003 0.804615,-1.46359 c 1.729041,-3.14512 2.799397,-6.85598 4.094765,-14.19632 0.766826,-4.34524 1.998133,-9.4786 2.579784,-10.75519 l 0.293459,-0.64408 h 4.492123 4.492123 l -0.211704,0.94994 c -3.505781,10.10136 -4.212011,30.8063 -12.678084,34.12375 -1.429377,0.4302 -5.836568,0.66387 -8.9274224,0.47333 z m 36.1834724,-13.5238 c -2.571935,-0.22167 -3.994409,-0.66362 -5.738778,-1.78297 -3.693453,-2.37008 -5.280509,-6.05727 -5.280509,-12.2681 0,-6.88491 1.700538,-12.61089 5.355934,-18.03422 3.001193,-4.4527 6.813108,-7.11648 12.291095,-8.58903 2.420728,-0.65072 8.388281,-0.65297 10.72448,-0.004 2.987577,0.82986 4.787286,1.86229 6.865718,3.93858 4.133577,4.12934 5.258678,9.21002 3.539405,15.98315 -0.406712,1.60223 -1.489313,5.079 -2.405792,7.72617 -0.91648,2.64716 -1.666341,4.88644 -1.66637,4.97618 -1.9e-5,0.0897 0.902838,0.20417 2.006357,0.25428 1.103513,0.0502 2.073693,0.15842 2.155946,0.24068 0.08224,0.0822 -0.269954,1.87721 -0.782682,3.98878 l -0.932238,3.83924 -11.926356,-0.0361 c -6.559497,-0.0198 -12.952288,-0.12453 -14.20621,-0.23259 z m 14.664526,-8.28076 c 2.201709,-7.34241 4.207598,-15.5869 4.207598,-17.2938 0,-3.90424 -2.305733,-6.42293 -6.503392,-7.10402 -2.891491,-0.46915 -6.031855,0.43316 -8.377865,2.4072 -2.136653,1.79788 -4.670798,9.51958 -5.034693,15.34104 -0.143891,2.30195 -0.11897,2.46578 0.57336,3.77056 0.558827,1.05317 1.018942,1.53056 2.018843,2.09462 1.659302,0.93606 3.265066,1.15873 8.630565,1.19682 3.941598,0.0279 4.365207,-0.011 4.485584,-0.41242 z m 24.092985,8.29243 c -2.252652,-0.23912 -3.354747,-0.70569 -4.788365,-2.02716 -2.251324,-2.07519 -2.764597,-5.33695 -1.813074,-11.52161 0.475348,-3.08961 3.027548,-16.17601 3.445902,-17.66886 l 0.26621,-0.94994 h 4.078539 4.078537 l -0.163939,2.08986 c -0.09019,1.14943 -0.568124,3.85676 -1.062112,6.01628 -1.709875,7.47488 -1.935194,8.86275 -1.953479,12.03256 -0.02652,4.59422 -0.496308,4.20379 4.960194,4.12205 l 4.604181,-0.0689 2.663156,-12.03256 2.663164,-12.03256 4.23412,-0.0694 c 3.34228,-0.0548 4.21085,-0.001 4.12368,0.25331 -0.13682,0.39984 -6.7179,31.68242 -6.7179,31.93292 0,0.23591 -16.307623,0.16944 -18.618814,-0.0759 z m 32.551244,-0.0185 c -3.43449,-0.44063 -6.32077,-2.67944 -7.12384,-5.52577 -1.19838,-4.24742 1.64356,-16.90765 4.71154,-20.98898 2.97837,-3.9621 8.57622,-6.42408 14.69818,-6.46437 5.85277,-0.0385 9.5343,1.69367 11.32333,5.32771 0.80687,1.63897 0.83566,1.80367 0.8292,4.74306 -0.006,2.70982 -0.3681,5.40415 -1.26901,9.4414 l -0.1272,0.56996 h -10.47828 -10.47828 l -0.15275,0.56996 c -0.49817,1.85893 0.13909,3.56958 1.54927,4.15879 1.0281,0.42956 7.55976,0.82125 13.9334,0.83555 2.12469,0.005 3.86308,0.10046 3.86308,0.21264 0,0.11218 -0.34198,1.76859 -0.75995,3.68091 -0.41797,1.91232 -0.75995,3.53042 -0.75995,3.59579 0,0.20711 -18.03812,0.0641 -19.75874,-0.15665 z m 15.31696,-21.40757 c -0.0111,-1.65117 -0.58597,-2.53473 -2.07854,-3.19498 -1.48865,-0.65849 -4.32492,-0.70604 -5.76556,-0.0966 -1.60221,0.67773 -3.30264,2.53729 -3.78944,4.14407 l -0.17411,0.57467 5.90819,-0.0681 5.90818,-0.0681 -0.009,-1.29104 z m 10.02247,20.48568 c 0.62822,-2.86174 6.57852,-30.92538 6.57852,-31.02655 0,-0.23323 12.60758,-0.3943 17.60554,-0.22492 5.71544,0.19368 6.54864,0.41555 7.6123,2.02706 0.57865,0.87668 1.18874,2.91272 1.4683,4.90009 l 0.13363,0.94994 h -9.85862 -9.85861 l -0.17533,0.69663 c -0.0964,0.38314 -1.26894,5.82628 -2.60558,12.09588 l -2.43025,11.39927 -4.33986,0.0692 -4.33985,0.0692 0.20981,-0.95581 z m 27.03753,-0.63917 c 1.52806,-3.77201 1.3349,-6.82481 -0.90959,-14.37575 -0.68332,-2.29885 -1.32039,-4.60974 -1.41569,-5.13531 l -0.17329,-0.95557 4.75361,0.0689 4.75359,0.0689 0.77491,2.50517 0.77491,2.50517 0.64194,-0.85861 c 0.35309,-0.47223 3.48146,-4.99084 6.95194,-10.04135 l 6.30997,-9.18274 h 5.13765 c 2.86019,0 5.13763,0.10065 5.13763,0.22706 0,0.51115 -4.74704,7.26736 -7.84981,11.1722 -5.09784,6.41569 -9.19999,11.92531 -10.80039,14.50609 -1.61118,2.59817 -4.10773,7.69892 -4.77164,9.74903 l -0.43068,1.32991 h -4.76322 -4.76322 z M 23.150841,252.66338 c 0,-0.19663 0.352407,-1.84952 0.783111,-3.6731 l 0.783121,-3.31557 h 4.536538 c 2.4951,0 4.536547,0.0535 4.536547,0.11884 0,0.0654 -0.34198,1.68347 -0.759951,3.59579 -0.417971,1.91232 -0.759951,3.51174 -0.759951,3.55426 0,0.0425 -2.051864,0.0773 -4.559707,0.0773 -3.756912,0 -4.559708,-0.0629 -4.559708,-0.35752 z"
       id="path833"
       inkscape:connector-curvature="0"
       sodipodi:nodetypes="ccccccccscccccccsssccccscccscccccsscccccccccsccccscccccccscccsscccccccccssscccccccccccssccccccsccccccccccccccscsscccccccccsssssscc" />
    <path
       style="fill:#0767aa;stroke-width:0.25331709"
       d="m 110.9989,221.46744 c -15.737582,-1.37003 -28.864802,-6.59227 -41.198902,-16.38963 -3.51057,-2.78855 -10.02041,-9.29325 -12.74073,-12.73065 -9.80319,-12.38738 -15.19467,-25.83558 -16.27403,-40.59294 -0.87562,-11.97194 1.96883,-23.35846 8.17069,-32.70786 1.96888,-2.96813 5.53742,-7.34547 6.33717,-7.77348 0.51166,-0.27384 0.53918,-0.24539 0.41572,0.42975 -1.06501,5.82428 -1.72767,10.25421 -1.97734,13.21876 -0.37219,4.41921 -0.17468,13.26242 0.37893,16.9659 2.04903,13.70777 7.54478,25.09791 17.18481,35.61623 8.81136,9.61414 24.312045,19.81125 35.974202,23.6656 17.45748,5.76969 36.83375,4.79665 52.23971,-2.6234 5.19998,-2.50449 10.05676,-5.8142 13.84999,-9.43822 2.19601,-2.09806 2.22456,-1.99851 0.38421,1.33978 -3.02349,5.48446 -7.04697,10.50968 -11.82243,14.76587 -9.82071,8.75287 -20.62181,13.80788 -33.69643,15.77022 -3.97786,0.59703 -13.01183,0.8509 -17.22557,0.48407 z m 19.9015,-43.57895 c -11.04921,-1.05391 -21.50427,-5.5023 -29.95405,-12.74476 -13.624452,-11.67778 -20.080392,-25.39521 -19.505852,-41.4455 0.0773,-2.15953 0.32866,-4.89535 0.55859,-6.07961 1.19864,-6.17391 3.93689,-11.92812 8.2929,-17.4269 0.69476,-0.877032 1.2906,-1.560982 1.32408,-1.519902 0.0335,0.0411 -0.14447,1.27162 -0.39546,2.734512 -3.18023,18.53667 1.32001,34.4618 13.065392,46.23493 8.31093,8.33056 20.95364,15.38078 31.53798,17.58719 5.93595,1.23741 13.20036,1.34543 18.58805,0.2764 8.73966,-1.73412 16.6567,-5.92364 22.98748,-12.16444 l 1.93141,-1.90396 -0.8522,1.86244 c -5.2561,11.48695 -15.42448,19.56262 -29.05836,23.07797 -5.49073,1.41572 -13.05363,2.03302 -18.51996,1.51163 z m 16.57616,-38.40208 c -8.55737,-0.86588 -15.74084,-4.1507 -21.25424,-9.71905 -4.93429,-4.98347 -8.7746,-11.95546 -10.04862,-18.24303 -0.32519,-1.60489 -0.39326,-2.89609 -0.29183,-5.53559 0.15056,-3.91751 0.63874,-5.97422 2.2187,-9.347492 0.97829,-2.08869 3.24723,-5.74245 3.44387,-5.54581 0.0564,0.0563 -0.0112,0.88895 -0.15018,1.85023 -0.37122,2.56817 -0.31485,7.493102 0.11618,10.150702 1.7368,10.70852 9.08767,19.88017 20.51981,25.60246 5.34016,2.67298 9.44785,3.68606 14.94571,3.68606 2.66171,0 4.19029,-0.13601 6.12734,-0.54519 2.81396,-0.59443 6.3404,-1.76268 8.27359,-2.7409 0.67564,-0.34188 1.27797,-0.57208 1.33851,-0.51154 0.0605,0.0605 -0.36547,0.72366 -0.94667,1.4736 -4.15533,5.36172 -9.003,8.22426 -15.61566,9.22101 -2.23818,0.33737 -6.39527,0.43537 -8.67651,0.20454 z"
       id="path837"
       inkscape:connector-curvature="0" />
  </g>
</svg>
